<?xml version="1.0" encoding="UTF-8"?>
<svg width="48px" height="49px" viewBox="0 0 48 49" version="1.1" xmlns="http://www.w3.org/2000/svg" xmlns:xlink="http://www.w3.org/1999/xlink">
    <!-- Generator: Sketch 52.4 (67378) - http://www.bohemiancoding.com/sketch -->
    <title>019-analytics-3</title>
    <desc>Created with Sketch.</desc>
    <g id="Welcome" stroke="none" stroke-width="1" fill="none" fill-rule="evenodd">
        <g id="Desktop-HD" transform="translate(-994.000000, -553.000000)">
            <g id="019-analytics-3" transform="translate(994.000000, 553.000000)">
                <polygon id="Rectangle" fill="#70FFE9" transform="translate(21.000000, 30.000000) rotate(-270.000000) translate(-21.000000, -30.000000) " points="2 11 40 21.8313683 12.8313683 49"></polygon>
                <path d="M43.9751111,0.00075 L14.9689825,0.00075 C14.4522105,0.00075 14.0333099,0.4205625 14.0333099,0.93825 C14.0333099,1.4559375 14.4522105,1.87575 14.9689825,1.87575 L40.6295205,1.87575 C40.2470021,2.49533198 40.0447266,3.20961408 40.0454737,3.93815625 L40.0454737,16.2177188 C40.0454737,16.7354063 40.4643743,17.1552188 40.9811462,17.1552188 C41.4979181,17.1552188 41.9168187,16.7354063 41.9168187,16.2177188 L41.9168187,13.312875 L46.9692632,13.312875 C47.4860351,13.312875 47.9049357,12.8930625 47.9049357,12.375375 L47.9049357,3.93815625 C47.9048421,1.76709375 46.1420351,0.00075 43.9751111,0.00075 Z M46.0335906,11.437875 L41.9167251,11.437875 L41.9167251,3.93815625 C41.9167251,2.800875 42.8401404,1.87575 43.9751111,1.87575 C45.1100819,1.87575 46.0334971,2.80096875 46.0334971,3.93815625 L46.0334971,11.437875 L46.0335906,11.437875 Z" id="Shape" fill="#39516B" fill-rule="nonzero"></path>
                <path d="M46.8839298,38.205375 L40.772117,32.081625 C41.4774269,30.6403125 41.874152,29.0211563 41.874152,27.3106875 C41.874152,21.3143438 37.0052865,16.4360625 31.0207251,16.4360625 C25.0361637,16.4360625 20.1672982,21.3143438 20.1672982,27.3106875 C20.1672982,28.6815938 20.4224561,29.9938125 20.8866433,31.203 L19.7914386,32.3003438 L15.2868304,27.7868438 C14.9214076,27.4207875 14.3290251,27.4207875 13.9636023,27.7868438 L12.9105029,28.842 L12.9105029,20.2815 C12.9105029,19.7638125 12.4916023,19.344 11.9748304,19.344 C11.4580585,19.344 11.0391579,19.7638125 11.0391579,20.2815 L11.0391579,30.717 L2.57927485,39.1935 C2.21389474,39.5595938 2.21389474,40.1532188 2.57927485,40.5194063 C2.7620117,40.7024063 3.00145029,40.794 3.24088889,40.794 C3.48032749,40.794 3.71985965,40.7024063 3.90250292,40.5194063 L11.0391579,33.3688125 L11.0391579,40.1248125 L6.92294737,40.1248125 C6.40617544,40.1248125 5.98727485,40.544625 5.98727485,41.0623125 L5.98727485,44.0622188 C5.98727485,46.2332813 7.75008187,47.999625 9.91700585,47.999625 L37.9869942,47.999625 C40.1539181,47.999625 41.9168187,46.2332813 41.9168187,44.0620313 L41.9168187,43.2571875 C42.5714152,43.8938438 43.4342924,44.2439063 44.3558363,44.2439063 L44.3734269,44.2438125 C45.3158363,44.2392188 46.201076,43.8696563 46.8663392,43.2030938 C48.246269,41.8201875 48.2542222,39.5783438 46.8839298,38.205375 Z M31.0206316,18.3109688 C35.9734269,18.3109688 40.002807,22.3482188 40.002807,27.3106875 C40.002807,32.2731563 35.9734269,36.3104063 31.0206316,36.3104063 C27.6196491,36.3104063 24.6542222,34.4067188 23.1298246,31.6070625 L28.537076,26.18925 L28.537076,28.3161563 C28.537076,28.8338438 28.9559766,29.2536563 29.4727485,29.2536563 C29.9895205,29.2536563 30.4084211,28.8338438 30.4084211,28.3161563 L30.4084211,23.8169063 C30.4084211,23.2992188 29.9895205,22.8794063 29.4727485,22.8794063 L24.9821754,22.8794063 C24.4654035,22.8794063 24.0465029,23.2992188 24.0465029,23.8169063 C24.0465029,24.3345938 24.4654035,24.7544063 24.9821754,24.7544063 L27.3227602,24.7544063 L22.3661287,29.7207188 C22.1483155,28.9360181 22.0381111,28.1252645 22.0385497,27.3107813 C22.0384561,22.348125 26.0678363,18.3109688 31.0206316,18.3109688 Z M9.91691228,46.1243438 C8.78184795,46.12425 7.85852632,45.1990313 7.85852632,44.0618438 L7.85852632,41.9994375 L34.057076,41.9994375 L34.057076,43.1244375 C34.057076,43.1550938 34.0587602,43.185375 34.0616608,43.2152813 C34.0586679,43.2454704 34.0571379,43.2757873 34.057076,43.306125 L34.057076,44.0618438 C34.0563024,44.7904615 34.2586133,45.5048192 34.6412164,46.1244375 L9.91691228,46.1244375 L9.91691228,46.1243438 Z M40.0454737,44.0615625 C40.0454737,45.1990313 39.1219649,46.12425 37.9869942,46.12425 C36.8518363,46.12425 35.9284211,45.1989375 35.9284211,44.0616563 L35.9284211,43.3059375 C35.9284211,43.2752813 35.9267368,43.245 35.9238363,43.2150938 C35.9267368,43.1851875 35.9284211,43.1549063 35.9284211,43.12425 L35.9284211,41.0618438 C35.9284211,40.5441563 35.5095205,40.1243438 34.9927485,40.1243438 L12.9105029,40.1243438 L12.9105029,31.4934375 L14.6251228,29.7754688 L19.129731,34.2889688 C19.4951538,34.655025 20.0875363,34.655025 20.4529591,34.2889688 L21.7612164,32.9781563 C23.670924,36.0989063 27.1070877,38.1852188 31.0206316,38.1852188 C32.7195322,38.1852188 34.3284211,37.7916563 35.7615906,37.0913438 L40.0454737,41.3835938 L40.0454737,44.0615625 Z M45.5431111,41.8769063 C45.2289123,42.1917188 44.8101988,42.366375 44.3642573,42.3684375 L44.3559298,42.3685313 C43.916538,42.3685313 43.5069006,42.2003438 43.2017778,41.8945313 L37.4122105,36.0936563 C38.3150974,35.4321216 39.1114612,34.6358464 39.7735673,33.7325625 L45.5607018,39.531 C46.2013567,40.173 46.1934971,41.2254375 45.5431111,41.8769063 Z" id="Shape" fill="#39516B" fill-rule="nonzero"></path>
                <path d="M36.944655,26.3732812 C36.427883,26.3732812 36.0089825,26.7930937 36.0089825,27.3107812 C36.0089825,30.0666562 33.7712281,32.3087812 31.0206316,32.3087812 C30.5038596,32.3087812 30.0849591,32.7285 30.0849591,33.2462812 C30.0849591,33.7639687 30.5038596,34.1837812 31.0206316,34.1837812 C34.8030877,34.1837812 37.8803275,31.1005312 37.8803275,27.3107812 C37.8803275,26.7930937 37.4614269,26.3732812 36.944655,26.3732812 Z" id="Path" fill="#39516B"></path>
                <path d="M23.9642573,16.1252813 L23.110269,16.1252813 L23.110269,9.84421875 C23.110269,9.32653125 22.6913684,8.90671875 22.1745965,8.90671875 L17.8778012,8.90671875 C17.3610292,8.90671875 16.9421287,9.32653125 16.9421287,9.84421875 L16.9421287,16.1252813 L15.4379415,16.1252813 L15.4379415,6.0005625 C15.4379415,5.482875 15.0190409,5.0630625 14.502269,5.0630625 L10.3854035,5.0630625 C9.86863158,5.0630625 9.44973099,5.482875 9.44973099,6.0005625 L9.44973099,16.1251875 L7.95293567,16.1251875 L7.95293567,12.0002813 C7.95293567,11.4825938 7.53403509,11.0627813 7.01726316,11.0627813 L2.90049123,11.0627813 C2.3837193,11.0627813 1.96481871,11.4825938 1.96481871,12.0002813 L1.96481871,16.1251875 L0.935672515,16.1251875 C0.418900585,16.1251875 0,16.545 0,17.0626875 C0,17.580375 0.418900585,18.0001875 0.935672515,18.0001875 L23.9643509,18.0001875 C24.4811228,18.0001875 24.9000234,17.580375 24.9000234,17.0626875 C24.8999298,16.545 24.4810292,16.1252813 23.9642573,16.1252813 Z M6.08168421,16.1252813 L3.83616374,16.1252813 L3.83616374,12.937875 L6.08168421,12.937875 L6.08168421,16.1252813 Z M13.5667836,16.1252813 L11.3212632,16.1252813 L11.3212632,6.9380625 L13.5667836,6.9380625 L13.5667836,16.1252813 Z M21.2390175,16.1252813 L18.8135673,16.1252813 L18.8135673,10.7817188 L21.2390175,10.7817188 L21.2390175,16.1252813 Z" id="Shape" fill="#39516B" fill-rule="nonzero"></path>
                <path d="M31.5743626,5.0630625 L24.3267368,5.0630625 C23.8099649,5.0630625 23.3910643,5.482875 23.3910643,6.0005625 C23.3910643,6.51825 23.8099649,6.9380625 24.3267368,6.9380625 L31.5743626,6.9380625 C32.0911345,6.9380625 32.5100351,6.51825 32.5100351,6.0005625 C32.5099415,5.482875 32.0911345,5.0630625 31.5743626,5.0630625 Z" id="Path" fill="#39516B"></path>
                <path d="M36.8642807,5.33765625 C36.6884107,5.16248669 36.450741,5.06379752 36.2027602,5.06296875 C35.9566784,5.06296875 35.7152749,5.1631875 35.5412398,5.33765625 C35.3664202,5.51387547 35.267925,5.75200572 35.2670877,6.00046875 C35.2670877,6.24703125 35.3672047,6.48890625 35.5412398,6.6631875 C35.7171003,6.83838283 35.9547682,6.93710493 36.2027602,6.93796875 C36.4488421,6.93796875 36.6902456,6.83765625 36.8642807,6.6631875 C37.0391204,6.48701996 37.1376214,6.24890943 37.1384327,6.00046875 C37.1375652,5.75201181 37.0390745,5.51389262 36.8642807,5.33765625 Z" id="Path" fill="#39516B"></path>
                <path d="M27.9505029,9.18796875 L26.4162807,9.18796875 C25.8995088,9.18796875 25.4806082,9.60778125 25.4806082,10.1254687 C25.4806082,10.6431562 25.8995088,11.0629687 26.4162807,11.0629687 L27.9505029,11.0629687 C28.4672749,11.0629687 28.8861754,10.6431562 28.8861754,10.1254687 C28.8861754,9.60778125 28.4672749,9.18796875 27.9505029,9.18796875 Z" id="Path" fill="#39516B"></path>
                <path d="M36.2025731,9.18796875 L31.5743626,9.18796875 C31.0575906,9.18796875 30.6386901,9.60778125 30.6386901,10.1254687 C30.6386901,10.6431562 31.0575906,11.0629687 31.5743626,11.0629687 L36.2025731,11.0629687 C36.719345,11.0629687 37.1382456,10.6431562 37.1382456,10.1254687 C37.1382456,9.60778125 36.719345,9.18796875 36.2025731,9.18796875 Z" id="Path" fill="#39516B"></path>
                <path d="M1.59803509,41.5025625 C1.42217456,41.3273672 1.18450664,41.2286451 0.93651462,41.2277813 C0.689497076,41.2277813 0.44902924,41.3280938 0.274994152,41.5025625 C0.0997840524,41.6784825 0.00121684261,41.916753 0.000842105263,42.1652813 C0.000842105263,42.4118438 0.100023392,42.6537188 0.274994152,42.8280938 C0.44902924,43.0024688 0.689497076,43.1027813 0.93651462,43.1027813 C1.18259649,43.1027813 1.42306433,43.0025625 1.59803509,42.8280938 C1.77207018,42.6537188 1.87218713,42.4118438 1.87218713,42.1652813 C1.87218713,41.918625 1.77207018,41.67675 1.59803509,41.5025625 Z" id="Path" fill="#39516B"></path>
            </g>
        </g>
    </g>
</svg>