<?xml version="1.0" encoding="UTF-8"?>
<svg width="48px" height="52px" viewBox="0 0 48 52" version="1.1" xmlns="http://www.w3.org/2000/svg" xmlns:xlink="http://www.w3.org/1999/xlink">
    <!-- Generator: Sketch 52.4 (67378) - http://www.bohemiancoding.com/sketch -->
    <title>003-typewriter</title>
    <desc>Created with Sketch.</desc>
    <g id="Welcome" stroke="none" stroke-width="1" fill="none" fill-rule="evenodd">
        <g id="Desktop-HD" transform="translate(-610.000000, -453.000000)">
            <g id="003-typewriter" transform="translate(610.000000, 453.000000)">
                <rect id="Rectangle" fill="#70FFE9" x="0" y="0" width="38" height="38"></rect>
                <path d="M11.229375,36.9934375 C11.0532877,36.8180786 10.8150723,36.7193556 10.5665625,36.71875 C10.32,36.71875 10.078125,36.8189688 9.90375,36.9934375 C9.72846004,37.1695708 9.62974941,37.4077565 9.6290625,37.65625 C9.6290625,37.9028125 9.729375,38.1446875 9.90375,38.3189688 C10.078125,38.4933438 10.32,38.59375 10.5665625,38.59375 C10.813125,38.59375 11.055,38.4934375 11.229375,38.3189688 C11.4036562,38.1446875 11.5040625,37.9028125 11.5040625,37.65625 C11.5040625,37.4096875 11.40375,37.1678125 11.229375,36.9934375 Z" id="Path" fill="#39516B"></path>
                <path d="M15.706875,36.9934375 C15.530782,36.8180872 15.2925703,36.7193658 15.0440625,36.71875 C14.7975,36.71875 14.5565625,36.8189688 14.38125,36.9934375 C14.2069688,37.1678125 14.1075,37.4096875 14.1075,37.65625 C14.1075,37.9028125 14.2069688,38.1446875 14.38125,38.3189688 C14.557454,38.4941641 14.7955861,38.5928862 15.0440625,38.59375 C15.2915625,38.59375 15.5334375,38.4934375 15.706875,38.3189688 C15.8821875,38.1446875 15.9824063,37.9028125 15.9824063,37.65625 C15.9824063,37.4096875 15.8821875,37.1678125 15.706875,36.9934375 Z" id="Path" fill="#39516B"></path>
                <path d="M20.1852188,36.9934375 C20.0090512,36.8182564 19.7709407,36.7195629 19.5225,36.71875 C19.2740228,36.719518 19.0358667,36.8182164 18.8596875,36.9934375 C18.684375,37.1678125 18.585,37.4096875 18.585,37.65625 C18.585,37.9028125 18.684375,38.1446875 18.8596875,38.3189688 C19.0358514,38.4942242 19.2740094,38.592957 19.5225,38.59375 C19.7690625,38.59375 20.0099063,38.4934375 20.1852188,38.3189687 C20.3595938,38.1446875 20.46,37.9028125 20.46,37.65625 C20.46,37.4096875 20.3596875,37.1678125 20.1852188,36.9934375 Z" id="Path" fill="#39516B"></path>
                <path d="M24.6627188,36.9934375 C24.4884375,36.8190625 24.2465625,36.71875 24,36.71875 C23.7534375,36.71875 23.5115625,36.8189688 23.3371875,36.9934375 C23.1628125,37.1679063 23.0625,37.4096875 23.0625,37.65625 C23.0625,37.9028125 23.1627187,38.1446875 23.3371875,38.3189688 C23.5115625,38.4934375 23.7534375,38.59375 24,38.59375 C24.2465625,38.59375 24.4884375,38.4934375 24.6627188,38.3189688 C24.8371875,38.1446875 24.9375,37.9028125 24.9375,37.65625 C24.9375,37.4096875 24.8371875,37.1678125 24.6627188,36.9934375 Z" id="Path" fill="#39516B"></path>
                <path d="M29.1403125,36.9934375 C28.9659375,36.8190625 28.7240625,36.71875 28.4775,36.71875 C28.2309375,36.71875 27.9890625,36.8189688 27.8146875,36.9934375 C27.6393975,37.1695708 27.5406869,37.4077565 27.54,37.65625 C27.54,37.9028125 27.6403125,38.1446875 27.8146875,38.3189688 C27.9890625,38.4934375 28.2309375,38.59375 28.4775,38.59375 C28.7240625,38.59375 28.9659375,38.4934375 29.1403125,38.3189688 C29.3145937,38.1446875 29.415,37.9028125 29.415,37.65625 C29.415,37.4096875 29.3146875,37.1678125 29.1403125,36.9934375 Z" id="Path" fill="#39516B"></path>
                <path d="M33.6186563,36.9934375 C33.4423514,36.8184051 33.2042763,36.7197403 32.9558438,36.71875 C32.7071146,36.7194987 32.4686888,36.8181832 32.2921875,36.9934375 C32.1178125,37.1678125 32.0174063,37.4096875 32.0174063,37.65625 C32.0174063,37.9028125 32.1177188,38.1446875 32.2921875,38.3189688 C32.4685991,38.4943692 32.7070749,38.593108 32.9558438,38.59375 C33.2025,38.59375 33.4433438,38.4934375 33.6186563,38.3189688 C33.7930313,38.1446875 33.8933438,37.9028125 33.8933438,37.65625 C33.8933438,37.4096875 33.793125,37.1678125 33.6186563,36.9934375 Z" id="Path" fill="#39516B"></path>
                <path d="M38.0961563,36.9934375 C37.921875,36.8190625 37.68,36.71875 37.4334375,36.71875 C37.186875,36.71875 36.945,36.8189688 36.770625,36.9934375 C36.59625,37.1679063 36.4959375,37.4096875 36.4959375,37.65625 C36.4959375,37.9028125 36.5961563,38.1446875 36.770625,38.3189688 C36.945,38.4934375 37.186875,38.59375 37.4334375,38.59375 C37.68,38.59375 37.921875,38.4934375 38.0961563,38.3189688 C38.2705313,38.1446875 38.3709375,37.9028125 38.3709375,37.65625 C38.3709375,37.4096875 38.270625,37.1678125 38.0961563,36.9934375 Z" id="Path" fill="#39516B"></path>
                <path d="M11.229375,45.3371875 C11.0532877,45.1618286 10.8150723,45.0631056 10.5665625,45.0625 C10.32,45.0625 10.078125,45.1627188 9.90375,45.3371875 C9.72946875,45.5115625 9.6290625,45.7534375 9.6290625,46 C9.6290625,46.2465625 9.729375,46.4884375 9.90375,46.6627188 C10.078125,46.8370938 10.32,46.9375 10.5665625,46.9375 C10.813125,46.9375 11.055,46.8371875 11.229375,46.6627188 C11.4036562,46.4884375 11.5040625,46.2465625 11.5040625,46 C11.5040625,45.7534375 11.40375,45.5115625 11.229375,45.3371875 Z" id="Path" fill="#39516B"></path>
                <path d="M15.706875,45.3371875 C15.5310181,45.1619995 15.2931317,45.0632872 15.0449062,45.0625 C14.7974062,45.0625 14.5555312,45.1627188 14.3811562,45.3371875 C14.206875,45.5115625 14.1074062,45.7534375 14.1074062,46 C14.1074062,46.2465625 14.206875,46.4884375 14.3811562,46.6627188 C14.5577225,46.8379444 14.7961515,46.93665 15.0449062,46.9375 C15.2914687,46.9375 15.5324062,46.8371875 15.706875,46.6627188 C15.8821875,46.4884375 15.9824062,46.2465625 15.9824062,46 C15.9824062,45.7534375 15.8821875,45.5115625 15.706875,45.3371875 Z" id="Path" fill="#39516B"></path>
                <path d="M28.5,45.0625 L19.5222188,45.0625 C19.0045313,45.0625 18.5847188,45.4823125 18.5847188,46 C18.5847188,46.5176875 19.0045313,46.9375 19.5222188,46.9375 L28.5,46.9375 C29.0176875,46.9375 29.4375,46.5176875 29.4375,46 C29.4375,45.4823125 29.0176875,45.0625 28.5,45.0625 Z" id="Path" fill="#39516B"></path>
                <path d="M33.6186563,45.3371875 C33.4424886,45.1619492 33.2043251,45.0632478 32.9558438,45.0625 C32.7083438,45.0625 32.4664688,45.1627188 32.2921875,45.3371875 C32.1178125,45.5115625 32.0174063,45.7534375 32.0174063,46 C32.0174063,46.2465625 32.1177188,46.4884375 32.2921875,46.6627188 C32.4686049,46.8381106 32.7070769,46.9368479 32.9558438,46.9375 C33.2025,46.9375 33.4433438,46.8371875 33.6186563,46.6627188 C33.7930313,46.4884375 33.8933438,46.2465625 33.8933438,46 C33.8933438,45.7534375 33.793125,45.5115625 33.6186563,45.3371875 Z" id="Path" fill="#39516B"></path>
                <path d="M38.0961563,45.3371875 C37.921875,45.1627188 37.68,45.0625 37.4334375,45.0625 C37.186875,45.0625 36.945,45.1627188 36.770625,45.3371875 C36.595464,45.5134067 36.4967764,45.751537 36.4959375,46 C36.4959375,46.2475 36.5961563,46.4884375 36.770625,46.6627188 C36.945,46.8370938 37.186875,46.9375 37.4334375,46.9375 C37.68,46.9375 37.921875,46.8371875 38.0961563,46.6627188 C38.2705313,46.4884375 38.3709375,46.2465625 38.3709375,46 C38.3709375,45.7534375 38.270625,45.5115625 38.0961563,45.3371875 Z" id="Path" fill="#39516B"></path>
                <path d="M6.66271875,41.1653125 C6.4884375,40.9908438 6.2465625,40.890625 6,40.890625 C5.7534375,40.890625 5.5115625,40.9908438 5.3371875,41.1653125 C5.1628125,41.3397813 5.0625,41.5815625 5.0625,41.828125 C5.0625,42.0746875 5.16271875,42.3165625 5.3371875,42.4908438 C5.5115625,42.6652188 5.7534375,42.765625 6,42.765625 C6.2465625,42.765625 6.4884375,42.6653125 6.66271875,42.4908438 C6.8371875,42.3165625 6.9375,42.0746875 6.9375,41.828125 C6.9375,41.5815625 6.8371875,41.3396875 6.66271875,41.1653125 Z" id="Path" fill="#39516B"></path>
                <path d="M11.1627187,41.1653125 C10.9884375,40.9909375 10.7465625,40.890625 10.5,40.890625 C10.2534375,40.890625 10.0115625,40.9908438 9.8371875,41.1653125 C9.6628125,41.3397813 9.5625,41.5815625 9.5625,41.828125 C9.5625,42.0746875 9.66271875,42.3165625 9.8371875,42.4908438 C10.0115625,42.6653125 10.2534375,42.765625 10.5,42.765625 C10.7465625,42.765625 10.9884375,42.6653125 11.1627187,42.4908438 C11.3370938,42.3165625 11.4375,42.0746875 11.4375,41.828125 C11.4375,41.5815625 11.3371875,41.3396875 11.1627187,41.1653125 Z" id="Path" fill="#39516B"></path>
                <path d="M15.6627187,41.1653125 C15.4884375,40.9909375 15.2465625,40.890625 15,40.890625 C14.7534375,40.890625 14.5115625,40.9908438 14.3371875,41.1653125 C14.1618803,41.3414343 14.0631666,41.5796274 14.0625,41.828125 C14.0625,42.0746875 14.1627187,42.3165625 14.3371875,42.4908438 C14.5133629,42.666082 14.7515135,42.7648118 15,42.765625 C15.2475,42.765625 15.4884375,42.6653125 15.6627187,42.4908438 C15.8370938,42.3165625 15.9375,42.0746875 15.9375,41.828125 C15.9375,41.5815625 15.8371875,41.3396875 15.6627187,41.1653125 Z" id="Path" fill="#39516B"></path>
                <path d="M20.1627187,41.1653125 C19.9884375,40.9909375 19.7465625,40.890625 19.5,40.890625 C19.2534375,40.890625 19.0115625,40.9908438 18.8371875,41.1653125 C18.6628125,41.3397813 18.5625,41.5815625 18.5625,41.828125 C18.5625,42.0746875 18.6627187,42.3165625 18.8371875,42.4908438 C19.0115625,42.6653125 19.2534375,42.765625 19.5,42.765625 C19.7465625,42.765625 19.9884375,42.6653125 20.1627187,42.4908438 C20.3370938,42.3165625 20.4375,42.0746875 20.4375,41.828125 C20.4375,41.5815625 20.3371875,41.3396875 20.1627187,41.1653125 Z" id="Path" fill="#39516B"></path>
                <path d="M24.6627188,41.1653125 C24.4884375,40.9909375 24.2465625,40.890625 24,40.890625 C23.7534375,40.890625 23.5115625,40.9908438 23.3371875,41.1653125 C23.1628125,41.3397813 23.0625,41.5815625 23.0625,41.828125 C23.0625,42.0746875 23.1627187,42.3165625 23.3371875,42.4908438 C23.5115625,42.6653125 23.7534375,42.765625 24,42.765625 C24.2465625,42.765625 24.4884375,42.6653125 24.6627188,42.4908438 C24.8370938,42.3165625 24.9375,42.0746875 24.9375,41.828125 C24.9375,41.5815625 24.8371875,41.3396875 24.6627188,41.1653125 Z" id="Path" fill="#39516B"></path>
                <path d="M29.1627188,41.1653125 C28.9884375,40.9908438 28.7465625,40.890625 28.5,40.890625 C28.2534375,40.890625 28.0115625,40.9908438 27.8371875,41.1653125 C27.6628125,41.3397813 27.5625,41.5815625 27.5625,41.828125 C27.5625,42.0746875 27.6627188,42.3165625 27.8371875,42.4908438 C28.0115625,42.6652188 28.2534375,42.765625 28.5,42.765625 C28.7465625,42.765625 28.9884375,42.6653125 29.1627188,42.4908438 C29.3370938,42.3165625 29.4375,42.0746875 29.4375,41.828125 C29.4375,41.5815625 29.3371875,41.3396875 29.1627188,41.1653125 Z" id="Path" fill="#39516B"></path>
                <path d="M33.6627188,41.1653125 C33.4884375,40.9908438 33.2465625,40.890625 33,40.890625 C32.7534375,40.890625 32.5115625,40.9908438 32.3371875,41.1653125 C32.1628125,41.3397813 32.0625,41.5815625 32.0625,41.828125 C32.0625,42.0746875 32.1627188,42.3165625 32.3371875,42.4908438 C32.5115625,42.6652188 32.7534375,42.765625 33,42.765625 C33.2465625,42.765625 33.4884375,42.6653125 33.6627188,42.4908438 C33.8370938,42.3165625 33.9375,42.0746875 33.9375,41.828125 C33.9375,41.5815625 33.8371875,41.3396875 33.6627188,41.1653125 Z" id="Path" fill="#39516B"></path>
                <path d="M38.1627188,41.1653125 C37.9884375,40.9908438 37.7465625,40.890625 37.5,40.890625 C37.2534375,40.890625 37.0115625,40.9908438 36.8371875,41.1653125 C36.6628125,41.3397813 36.5625,41.5815625 36.5625,41.828125 C36.5625,42.0746875 36.6627188,42.3165625 36.8371875,42.4908438 C37.0115625,42.6652188 37.2534375,42.765625 37.5,42.765625 C37.7465625,42.765625 37.9884375,42.6653125 38.1627188,42.4908438 C38.3370938,42.3165625 38.4375,42.0746875 38.4375,41.828125 C38.4375,41.5815625 38.3371875,41.3396875 38.1627188,41.1653125 Z" id="Path" fill="#39516B"></path>
                <path d="M42.6627188,41.1653125 C42.4884375,40.9909375 42.2465625,40.890625 42,40.890625 C41.7534375,40.890625 41.5115625,40.9908438 41.3371875,41.1653125 C41.1628125,41.3396875 41.0625,41.5815625 41.0625,41.828125 C41.0625,42.0746875 41.1627188,42.3165625 41.3371875,42.4908438 C41.5115625,42.6652188 41.7534375,42.765625 42,42.765625 C42.2465625,42.765625 42.4884375,42.6653125 42.6627188,42.4908438 C42.8370938,42.3165625 42.9375,42.0746875 42.9375,41.828125 C42.9375,41.5815625 42.8371875,41.3396875 42.6627188,41.1653125 Z" id="Path" fill="#39516B"></path>
                <path d="M45.2367187,25.864 L46.1385937,25.864 C46.2119062,26.30875 46.5970313,26.6483125 47.0625,26.6483125 C47.5801875,26.6483125 48,26.2285 48,25.7108125 L48,24.1422812 C48,23.6245938 47.5801875,23.2047812 47.0625,23.2047812 C46.597125,23.2047812 46.2119062,23.5443438 46.1385937,23.989 L45.2367187,23.989 L45.2367187,23.8488438 C45.2367187,22.4786875 44.1220312,21.364 42.751875,21.364 L39.9870937,21.364 L39.9870937,14.1672813 L45.0495937,14.1672813 C45.5672813,14.1672813 45.9870937,13.7474688 45.9870937,13.2297813 L45.9870937,7.94846875 C45.9870937,5.77121875 44.22075,4 42.0495937,4 L12.0605625,4 C9.88940625,4 8.1230625,5.76634375 8.1230625,7.9375 L8.1230625,21.364 L5.29734375,21.364 C3.9271875,21.364 2.8125,22.4785937 2.8125,23.8488438 L2.8125,23.989 L1.86140625,23.989 C1.78809375,23.5443438 1.402875,23.2047812 0.9375,23.2047812 C0.4198125,23.2047812 0,23.6245938 0,24.1422812 L0,25.7108125 C0,26.2285 0.4198125,26.6483125 0.9375,26.6483125 C1.40296875,26.6483125 1.78809375,26.3086562 1.86140625,25.864 L2.8125,25.864 L2.8125,26.0041563 C2.8125,26.4560313 2.934375,26.8797813 3.1460625,27.2452187 C1.28053125,28.2010937 0,30.1425625 0,32.3787813 L0,48.4375 C0,50.4018437 1.59815625,52 3.5625,52 L44.4375,52 C46.4018437,52 48,50.4018437 48,48.4375 L48,32.3787813 C48,30.1578437 46.7369062,28.2274375 44.892,27.2647188 C45.1180626,26.8830948 45.2371413,26.4476175 45.2367188,26.0040625 L45.2367188,25.864 Z M39.9870937,7.94846875 C39.9870937,6.8051875 40.9123125,5.875 42.0495937,5.875 C43.186875,5.875 44.1120937,6.8051875 44.1120937,7.94846875 L44.1120937,12.2922812 L39.9870937,12.2922812 L39.9870937,7.94846875 Z M39.9870937,23.239 L42.751875,23.239 C43.0885325,23.2393617 43.3613571,23.5121863 43.3617188,23.8488438 L43.3617188,26.0041563 C43.3613571,26.3408137 43.0885325,26.6136383 42.751875,26.614 L42.2668125,26.614 C42.2559375,26.6139063 42.24525,26.6131563 42.234375,26.6131563 L39.9870938,26.6131563 L39.9870937,23.239 Z M9.9980625,7.9375 C9.9980625,6.80021875 10.9232812,5.875 12.0605625,5.875 L38.7005625,5.875 C38.3151183,6.4978584 38.1113051,7.21599405 38.1120937,7.94846875 L38.1120937,26.6131562 L9.9980625,26.6131562 L9.9980625,7.9375 Z M35.625,28.4881562 L35.625,28.6756562 C35.625,30.01975 34.5315937,31.1131562 33.1875,31.1131562 L14.8125,31.1131562 C13.4684063,31.1131562 12.375,30.01975 12.375,28.6756562 L12.375,28.4881562 L35.625,28.4881562 Z M4.6875,23.8488437 C4.68786169,23.5121863 4.96068628,23.2393617 5.29734375,23.239 L8.062125,23.239 L8.062125,26.6131563 L5.765625,26.6131563 C5.75475,26.6131563 5.7440625,26.6139063 5.7331875,26.614 L5.29734375,26.614 C4.96068628,26.6136383 4.68786169,26.3408137 4.6875,26.0041563 L4.6875,23.8488438 Z M46.125,32.3787813 L46.125,48.4375 C46.125,49.3679688 45.3679688,50.125 44.4375,50.125 L3.5625,50.125 C2.63203125,50.125 1.875,49.3679688 1.875,48.4375 L1.875,32.3787813 C1.875,30.244375 3.6028125,28.506625 5.73309375,28.489 L10.5,28.4881563 L10.5,28.6756563 C10.5,31.0535312 12.434625,32.9881563 14.8125,32.9881563 L33.1875,32.9881563 C35.565375,32.9881563 37.5,31.0535312 37.5,28.6756563 L37.5,28.4881563 L42.2669062,28.489 C44.3971875,28.506625 46.125,30.244375 46.125,32.3787813 Z" id="Shape" fill="#39516B" fill-rule="nonzero"></path>
                <path d="M21.5018438,8.61315625 L13.1267813,8.61315625 C12.6090938,8.61315625 12.1892813,9.03296875 12.1892813,9.55065625 L12.1892813,17.925625 C12.1892813,18.4434062 12.609,18.863125 13.1267813,18.863125 L21.5018438,18.863125 C22.0195313,18.863125 22.4393438,18.4433125 22.4393438,17.925625 L22.4393438,9.55065625 C22.4393438,9.03296875 22.0195313,8.61315625 21.5018438,8.61315625 Z M20.5643438,16.988125 L14.0642813,16.988125 L14.0642813,10.4881562 L20.5643438,10.4881562 L20.5643438,16.988125 Z" id="Shape" fill="#39516B" fill-rule="nonzero"></path>
                <path d="M34.78125,8.61315625 L25.6875,8.61315625 C25.1698125,8.61315625 24.75,9.03296875 24.75,9.55065625 C24.75,10.0683437 25.1698125,10.4881562 25.6875,10.4881562 L34.78125,10.4881562 C35.2989375,10.4881562 35.71875,10.0683437 35.71875,9.55065625 C35.71875,9.03296875 35.2989375,8.61315625 34.78125,8.61315625 Z" id="Path" fill="#39516B"></path>
                <path d="M34.78125,12.7381562 L25.6875,12.7381562 C25.1698125,12.7381562 24.75,13.1579687 24.75,13.6756562 C24.75,14.1933437 25.1698125,14.6131562 25.6875,14.6131562 L34.78125,14.6131562 C35.2989375,14.6131562 35.71875,14.1933437 35.71875,13.6756562 C35.71875,13.1579687 35.2989375,12.7381562 34.78125,12.7381562 Z" id="Path" fill="#39516B"></path>
                <path d="M34.78125,16.8631562 L25.6875,16.8631562 C25.1698125,16.8631562 24.75,17.2829687 24.75,17.8006562 C24.75,18.3183437 25.1698125,18.7381562 25.6875,18.7381562 L34.78125,18.7381562 C35.2989375,18.7381562 35.71875,18.3183437 35.71875,17.8006562 C35.71875,17.2829687 35.2989375,16.8631562 34.78125,16.8631562 Z" id="Path" fill="#39516B"></path>
                <path d="M34.78125,20.9881562 L16.96875,20.9881562 C16.4510625,20.9881562 16.03125,21.4079687 16.03125,21.9256562 C16.03125,22.4433437 16.4510625,22.8631562 16.96875,22.8631562 L34.78125,22.8631562 C35.2989375,22.8631562 35.71875,22.4433437 35.71875,21.9256562 C35.71875,21.4079687 35.2989375,20.9881562 34.78125,20.9881562 Z" id="Path" fill="#39516B"></path>
                <path d="M13.7896875,21.263125 C13.6136982,21.0876191 13.3754195,20.9888699 13.126875,20.9884375 C12.8803125,20.9884375 12.6384375,21.0878125 12.4641562,21.263125 C12.2888061,21.4392258 12.1900564,21.6774245 12.189375,21.9259375 C12.189375,22.1725 12.2896875,22.414375 12.4641562,22.58875 C12.6384375,22.7630313 12.8803125,22.8634375 13.126875,22.8634375 C13.3734375,22.8634375 13.6153125,22.763125 13.7896875,22.58875 C13.9640625,22.4134375 14.064375,22.1725 14.064375,21.9259375 C14.064375,21.679375 13.9641562,21.4375 13.7896875,21.263125 Z" id="Path" fill="#39516B"></path>
            </g>
        </g>
    </g>
</svg>