<?xml version="1.0" encoding="UTF-8"?>
<svg width="52px" height="51px" viewBox="0 0 52 51" version="1.1" xmlns="http://www.w3.org/2000/svg" xmlns:xlink="http://www.w3.org/1999/xlink">
    <!-- Generator: Sketch 52.4 (67378) - http://www.bohemiancoding.com/sketch -->
    <title>024-development</title>
    <desc>Created with Sketch.</desc>
    <g id="Welcome" stroke="none" stroke-width="1" fill="none" fill-rule="evenodd">
        <g id="Desktop-HD" transform="translate(-610.000000, -262.000000)">
            <g id="024-development" transform="translate(610.000000, 262.000000)">
                <rect id="Rectangle" fill="#70FFE9" x="9" y="0" width="43" height="32"></rect>
                <path d="M47.0625,3.00065625 L0.93871875,3.00065625 C0.42103125,3.00065625 0.00121875,3.420375 0.00121875,3.93815625 L0.00121875,39.0075 C0.00121875,39.5251875 0.42103125,39.945 0.93871875,39.945 L2.629125,39.945 C2.13064827,40.9594544 1.87183838,42.0748483 1.87265625,43.2051562 L1.87265625,45.8419687 C1.87265625,45.8802187 1.87565625,45.917625 1.8800625,45.9546562 C0.72965625,46.952625 0,48.4231875 0,50.0619375 C0,50.579625 0.4198125,50.9994375 0.9375,50.9994375 L33.5003437,50.9994375 C34.0180312,50.9994375 34.4378437,50.579625 34.4378437,50.0619375 L34.4378437,46.306125 C34.4378437,45.7884375 34.0180312,45.368625 33.5003437,45.368625 L29.4051562,45.368625 L29.4051562,43.2051563 C29.4059875,42.0748468 29.1471769,40.9594498 28.6486875,39.945 L47.0625,39.945 C47.5801875,39.945 48,39.5251875 48,39.0075 L48,3.9380625 C48,3.42028125 47.5801875,3.00065625 47.0625,3.00065625 Z M32.5628437,47.243625 L32.5628437,49.1245313 L30.3895312,49.1245313 C30.2502253,48.4421651 29.9602239,47.7995433 29.5407187,47.243625 L32.5628437,47.243625 Z M1.87621875,38.07 L1.87621875,32.9998125 L5.6060625,32.9998125 C5.41771875,34.2612188 5.31984375,35.5351875 5.31984375,36.807375 L5.31984375,36.9595313 C4.81997469,37.2737224 4.35956603,37.646695 3.94846875,38.0704688 C3.9451875,38.0704688 3.94190625,38.07 3.938625,38.07 L1.87621875,38.07 Z M5.31984375,39.3495937 L5.31984375,44.6270625 C4.78541562,44.6379878 4.25556066,44.7280925 3.7475625,44.8944375 L3.7475625,43.20525 C3.7475625,41.7365625 4.3254375,40.3622813 5.31984375,39.3495937 Z M21.1913438,49.1244375 L2.0000625,49.1244375 C2.4125625,47.6130937 3.797625,46.4989687 5.437875,46.4989687 C5.93453285,46.4981463 6.42578231,46.6020632 6.8795625,46.8039375 C7.12187413,46.9115539 7.39842759,46.9115141 7.64070821,46.8038279 C7.88298883,46.6961416 8.0683293,46.4908839 8.1508125,46.2389062 C9.305625,42.7122187 12.5764688,40.3426875 16.2899063,40.3426875 C19.58625,40.3426875 22.5350625,42.1831875 23.9856563,45.1456875 C24.0128607,45.201128 24.0454553,45.2537567 24.0829687,45.3028125 L24.0829687,45.6917812 C22.6194375,46.2655312 21.5112188,47.5529062 21.1913438,49.1244375 Z M23.9639063,26.0431875 L23.6145,26.0431875 C23.5431563,25.8867188 23.4721875,25.7301563 23.3976563,25.5751875 C23.0284688,24.8071875 22.6178438,24.0582188 22.1731875,23.3295 L23.9638125,21.5387813 L23.9638125,26.0431875 L23.9639063,26.0431875 Z M24.0829688,36.8097188 L24.0829688,41.9609063 C23.4410796,41.2410269 22.7028944,40.6131957 21.8893125,40.0951875 C20.2170938,39.030375 18.2809688,38.4675938 16.2899063,38.4675938 C12.4598438,38.4675938 9.01659375,40.5362813 7.19465625,43.7774063 L7.19465625,36.807375 C7.19465625,29.7135938 10.26225,23.0866875 15.6375,18.5067188 C21.0143438,23.0866875 24.0829688,29.714625 24.0829688,36.8097188 Z M23.1325312,49.1244375 C23.5197187,48.0298125 24.5649375,47.2435312 25.7905312,47.2435312 C27.0162187,47.2435312 28.0613437,48.0298125 28.4485312,49.1244375 L23.1325312,49.1244375 Z M29.587125,27.9180938 L29.5889062,27.9181875 L29.5906875,27.9180938 L38.96175,27.9180938 L38.9635312,27.9181875 L38.9653125,27.9180938 L46.1248125,27.9180938 L46.1248125,31.1249063 L25.3220625,31.1249063 C25.0770701,30.0370073 24.7627728,28.965885 24.3810937,27.9180938 L29.587125,27.9180938 Z M25.839,26.0431875 L25.839,19.663875 L28.6514063,16.8514688 L28.6514063,26.0431875 L25.839,26.0431875 Z M30.5264063,26.0431875 L30.5264063,15.4426875 L33.3388125,18.2550938 L33.3388125,26.0431875 L30.5264063,26.0431875 Z M35.2137187,26.0431875 L35.2137187,17.8854375 L38.026125,15.0730313 L38.026125,26.0431875 L35.2137187,26.0431875 Z M25.9579687,45.3687188 L25.9579687,39.3495 C26.0360938,39.4296123 26.1117236,39.5121204 26.18475,39.5969063 C26.1898125,39.6031875 26.1951562,39.6091875 26.2003125,39.6152813 C27.0597922,40.6136931 27.531795,41.8877613 27.53025,43.2051563 L27.53025,45.368625 L25.9579687,45.368625 L25.9579687,45.3687188 Z M27.3287813,38.07 C26.9178383,37.6463816 26.4575847,37.2735645 25.957875,36.9595312 L25.957875,36.8097187 C25.957875,35.5366875 25.8599063,34.2619687 25.6712813,32.9998125 L46.125,32.9998125 L46.125,38.07 L27.3287813,38.07 Z M46.125,26.0431875 L44.5884375,26.0431875 L44.5884375,19.2659063 C44.5884375,18.748125 44.168625,18.3284063 43.6509375,18.3284063 C43.13325,18.3284063 42.7134375,18.748125 42.7134375,19.2659063 L42.7134375,26.0431875 L39.9010312,26.0431875 L39.9010312,13.422375 C39.9010312,13.353 39.8929687,13.2855938 39.878625,13.2205313 L42.7134375,10.3857188 L42.7134375,11.5045313 C42.7134375,12.0223125 43.13325,12.4420313 43.6509375,12.4420313 C44.168625,12.4420313 44.5884375,12.0223125 44.5884375,11.5045313 L44.5884375,8.12240625 C44.5884375,7.604625 44.168625,7.18490625 43.6509375,7.18490625 L40.2689062,7.18490625 C39.7512187,7.18490625 39.3314062,7.604625 39.3314062,8.12240625 C39.3314062,8.6401875 39.7512187,9.05990625 40.2689062,9.05990625 L41.387625,9.05990625 L34.0913437,16.3561875 L30.95625,13.2209063 C30.5900625,12.8548125 29.996625,12.8548125 29.6303437,13.2209063 L21.118125,21.733125 C19.7309062,19.795125 18.079125,18.0437813 16.2227812,16.55925 C15.8803827,16.2854085 15.3939172,16.2854474 15.0515625,16.5593438 C12.0335625,18.9736875 9.5533125,22.09125 7.8789375,25.5748125 C7.0305,27.340125 6.38559375,29.2085625 5.95509375,31.125 L1.87621875,31.125 L1.87621875,4.87565625 L46.125,4.87565625 L46.125,26.0431875 Z" id="Shape" fill="#39516B" fill-rule="nonzero"></path>
                <path d="M15.6388125,26.0431875 C12.6406875,26.0431875 10.2014062,28.482375 10.2014062,31.4805937 C10.2014062,34.4787187 12.6405937,36.9179062 15.6388125,36.9179062 C18.6369375,36.9179062 21.076125,34.4787187 21.076125,31.4805937 C21.076125,28.4824687 18.6369375,26.0431875 15.6388125,26.0431875 Z M15.6388125,35.043 C13.6744687,35.043 12.0764062,33.4448437 12.0764062,31.4805937 C12.0764062,29.5163437 13.6745625,27.9180937 15.6388125,27.9180937 C17.6030625,27.9180937 19.2012187,29.5163437 19.2012187,31.4805937 C19.2012187,33.4448437 17.6030625,35.043 15.6388125,35.043 Z" id="Shape" fill="#39516B" fill-rule="nonzero"></path>
                <path d="M13.3845,11.4837187 L4.75978125,11.4837187 C4.24209375,11.4837187 3.82228125,11.9034375 3.82228125,12.4212187 C3.82228125,12.939 4.24209375,13.3587187 4.75978125,13.3587187 L13.3845938,13.3587187 C13.9022813,13.3587187 14.3220938,12.939 14.3220938,12.4212187 C14.322,11.9034375 13.9021875,11.4837187 13.3845,11.4837187 Z" id="Path" fill="#39516B"></path>
                <path d="M12.6439688,15.5084062 C12.4696875,15.3340312 12.2278125,15.2337187 11.98125,15.2337187 C11.7346875,15.2337187 11.4928125,15.3340312 11.3184375,15.5084062 C11.1440625,15.6827812 11.04375,15.9246562 11.04375,16.1712187 C11.04375,16.4177812 11.1439688,16.6596562 11.3184375,16.8340312 C11.4928125,17.0084062 11.7346875,17.1087187 11.98125,17.1087187 C12.2278125,17.1087187 12.4696875,17.0084062 12.6439688,16.8340312 C12.8192813,16.6596562 12.91875,16.4177812 12.91875,16.1712187 C12.91875,15.9246562 12.8192813,15.6827812 12.6439688,15.5084062 Z" id="Path" fill="#39516B"></path>
                <path d="M7.9130625,15.233625 L4.75978125,15.233625 C4.24209375,15.233625 3.82228125,15.6533438 3.82228125,16.171125 C3.82228125,16.6889063 4.24209375,17.108625 4.75978125,17.108625 L7.9130625,17.108625 C8.43075,17.108625 8.8505625,16.6889063 8.8505625,16.171125 C8.8505625,15.6533438 8.43075,15.233625 7.9130625,15.233625 Z" id="Path" fill="#39516B"></path>
                <path d="M9.94715625,7.7338125 L4.75978125,7.7338125 C4.24209375,7.7338125 3.82228125,8.15353125 3.82228125,8.6713125 C3.82228125,9.18909375 4.24209375,9.6088125 4.75978125,9.6088125 L9.94725,9.6088125 C10.4649375,9.6088125 10.88475,9.18909375 10.88475,8.6713125 C10.88475,8.15353125 10.4648438,7.7338125 9.94715625,7.7338125 Z" id="Path" fill="#39516B"></path>
                <path d="M44.31375,15.5084062 C44.1375365,15.3332367 43.8994026,15.2345475 43.6509375,15.2337187 C43.404375,15.2337187 43.1625,15.3340312 42.9882188,15.5084062 C42.8138438,15.6827812 42.7134375,15.9246562 42.7134375,16.1712187 C42.7134375,16.4177812 42.81375,16.6596562 42.9882188,16.8340312 C43.1643863,17.0092124 43.4024968,17.1079058 43.6509375,17.1087187 C43.8975938,17.1087187 44.139375,17.0084062 44.31375,16.8340312 C44.488125,16.6596562 44.5884375,16.4177812 44.5884375,16.1712187 C44.5884375,15.9246562 44.4882188,15.6827812 44.31375,15.5084062 Z" id="Path" fill="#39516B"></path>
            </g>
        </g>
    </g>
</svg>