<?xml version="1.0" encoding="UTF-8"?>
<svg width="38px" height="53px" viewBox="0 0 38 53" version="1.1" xmlns="http://www.w3.org/2000/svg" xmlns:xlink="http://www.w3.org/1999/xlink">
    <!-- Generator: Sketch 52.4 (67378) - http://www.bohemiancoding.com/sketch -->
    <title>assistant</title>
    <desc>Created with Sketch.</desc>
    <g id="Welcome" stroke="none" stroke-width="1" fill="none" fill-rule="evenodd">
        <g id="Desktop-HD" transform="translate(-796.000000, -548.000000)">
            <g id="assistant" transform="translate(796.000000, 548.000000)">
                <rect id="Rectangle" fill="#70FFE9" x="0" y="0" width="38" height="38"></rect>
                <path d="M22.4443766,25.7594854 L14.5557175,25.7594854 C14.111961,25.7594854 13.7522857,26.1169123 13.7522857,26.5578947 C13.7522857,26.9988772 14.111961,27.3563041 14.5557175,27.3563041 L22.4443766,27.3563041 C22.8881331,27.3563041 23.2478084,26.9988772 23.2478084,26.5578947 C23.2478084,26.1169123 22.888039,25.7594854 22.4443766,25.7594854 Z" id="Path" fill="#39516B"></path>
                <path d="M15.2861786,24.1625731 C15.7299351,24.1625731 16.0896104,23.8051462 16.0896104,23.3641637 L16.0896104,21.7672515 C16.0896104,21.326269 15.7298409,20.9688421 15.2861786,20.9688421 C14.8424221,20.9688421 14.4827468,21.326269 14.4827468,21.7672515 L14.4827468,23.3641637 C14.4826526,23.8050526 14.8424221,24.1625731 15.2861786,24.1625731 Z" id="Path" fill="#39516B"></path>
                <path d="M21.7138214,24.1625731 C22.1575779,24.1625731 22.5172532,23.8051462 22.5172532,23.3641637 L22.5172532,21.7672515 C22.5172532,21.326269 22.1575779,20.9688421 21.7138214,20.9688421 C21.2700649,20.9688421 20.9103896,21.326269 20.9103896,21.7672515 L20.9103896,23.3641637 C20.9103896,23.8050526 21.2701591,24.1625731 21.7138214,24.1625731 Z" id="Path" fill="#39516B"></path>
                <path d="M28.9449903,5 L8.05500974,5 C5.83735714,5.00261988 4.0402987,6.78844444 4.03766234,8.99223392 L4.03766234,48.9142924 C4.0402987,51.1180819 5.83735714,52.9039064 8.05500974,52.9065263 L28.9450844,52.9065263 C31.162737,52.9039064 32.9597955,51.1180819 32.9624318,48.9142924 L32.9624318,8.99223392 C32.9597013,6.78844444 31.1626429,5.00261988 28.9449903,5 Z M23.627539,6.59691228 L23.0461266,7.75246784 C22.9108247,8.02353216 22.6323117,8.19476023 22.3278117,8.19382456 L14.6721883,8.19382456 C14.3676883,8.19476023 14.0891753,8.02362573 13.9538734,7.75246784 L13.372461,6.59691228 L23.627539,6.59691228 Z M31.3553799,48.9141988 C31.3539675,50.2364912 30.2756006,51.308117 28.9449903,51.3095205 L8.05500974,51.3095205 C6.72439935,51.308117 5.64603247,50.2364912 5.64462013,48.9141988 L5.64462013,8.99223392 C5.64603247,7.66994152 6.72439935,6.59831579 8.05500974,6.59691228 L11.5756851,6.59691228 L12.5164903,8.46666667 C12.9224903,9.28014035 13.7585,9.79363743 14.6722825,9.79064327 L22.3279058,9.79064327 C23.2416883,9.79363743 24.0776981,9.28014035 24.4836981,8.46666667 L25.4245032,6.59691228 L28.9451786,6.59691228 C30.275789,6.59831579 31.3541558,7.66994152 31.3555682,8.99223392 L31.3555682,48.9141988 L31.3553799,48.9141988 Z" id="Shape" fill="#39516B" fill-rule="nonzero"></path>
                <path d="M23.3207792,48.1157895 L13.6792208,48.1157895 C13.2354643,48.1157895 12.875789,48.4732164 12.875789,48.9141988 C12.875789,49.3551813 13.2354643,49.7126082 13.6792208,49.7126082 L23.3207792,49.7126082 C23.7645357,49.7126082 24.124211,49.3551813 24.124211,48.9141988 C24.124211,48.4732164 23.7645357,48.1157895 23.3207792,48.1157895 Z" id="Path" fill="#39516B"></path>
                <path d="M26.5346006,28.154807 L26.5346006,28.074152 C28.4050065,27.6947368 29.7484221,26.0597427 29.7484221,24.1626667 C29.7484221,22.2655906 28.4050065,20.6305965 26.5346006,20.2511813 L26.5346006,20.1705263 C26.5331883,18.8482339 25.4548214,17.7766082 24.124211,17.7752047 L20.4396104,17.7752047 L21.478526,16.7427836 C21.6536558,16.5689357 21.7383961,16.3244444 21.7079838,16.0803275 C21.6775714,15.8362105 21.5355844,15.6195088 21.3231688,15.4932865 L19.2547532,14.2622222 C19.5108571,13.0998363 18.8849091,11.9236023 17.7739643,11.4795322 C16.6630195,11.0355556 15.3919156,11.4535205 14.7667208,12.4684444 C14.141526,13.4833684 14.3452792,14.7984561 15.2485162,15.5795556 C16.1517532,16.3607485 17.4905552,16.3795556 18.4157305,15.6241871 L19.6136753,16.3371696 L18.1671591,17.774924 L12.8756006,17.774924 C11.5449903,17.7763275 10.4666234,18.8479532 10.465211,20.1702456 L10.465211,20.2509006 C8.59480519,20.6303158 7.25138961,22.2653099 7.25138961,24.162386 C7.25138961,26.059462 8.59480519,27.6944561 10.465211,28.0738713 L10.465211,28.1545263 C10.4666234,29.4768187 11.5449903,30.5484444 12.8756006,30.549848 L15.4340032,30.549848 C15.3387175,30.8055673 15.2886266,31.0756959 15.2859903,31.3482573 L15.2859903,32.9451696 C15.2887208,33.2178246 15.3388117,33.4879532 15.4340974,33.7435789 L12.8756006,33.7435789 C11.5449903,33.7449825 10.4666234,34.8166082 10.465211,36.1389006 C8.69112662,36.1409591 7.25336688,37.5696374 7.25138961,39.3326316 L7.25138961,45.7204678 C7.25138961,46.1614503 7.61106494,46.5188772 8.05482143,46.5188772 L28.9448961,46.5188772 C29.3886526,46.5188772 29.7483279,46.1614503 29.7483279,45.7204678 L29.7483279,39.3329123 C29.7462565,37.5699181 28.3085909,36.1411462 26.5345065,36.1391813 C26.5330942,34.8168889 25.4547273,33.7452632 24.1241169,33.7438596 L21.5657143,33.7438596 C21.661,33.4881404 21.7110909,33.2180117 21.7137273,32.9454503 L21.7137273,31.348538 C21.7109968,31.075883 21.6609058,30.8057544 21.5657143,30.5501287 L24.1241169,30.5501287 C25.4548214,30.5486316 26.5331883,29.4770994 26.5346006,28.154807 Z M26.5346006,21.9041404 C27.4977208,22.2425731 28.1415584,23.147462 28.1415584,24.1625731 C28.1415584,25.1776842 27.4977208,26.0825731 26.5346006,26.4210994 L26.5346006,21.9041404 Z M16.8930422,14.5812865 C16.4492857,14.5812865 16.0896104,14.2237661 16.0896104,13.7828772 C16.0896104,13.3418947 16.4492857,12.9844678 16.8930422,12.9844678 C17.3367987,12.9844678 17.696474,13.3419883 17.696474,13.7828772 C17.6960032,14.2235789 17.3366104,14.5807251 16.8930422,14.5812865 Z M10.4653994,26.4210994 C9.50227922,26.0825731 8.85844156,25.1776842 8.85844156,24.1625731 C8.85844156,23.147462 9.50227922,22.2425731 10.4653994,21.9041404 L10.4653994,26.4210994 Z M10.4653994,44.9220585 L8.85844156,44.9220585 L8.85844156,39.3330058 C8.85928896,38.4514152 9.57826299,37.7370292 10.4653994,37.7360936 L10.4653994,44.9220585 Z M26.5346006,37.7360936 C27.421737,37.7369357 28.1406169,38.4514152 28.1415584,39.3330058 L28.1415584,44.9220585 L26.5346006,44.9220585 L26.5346006,37.7360936 Z M21.7138214,44.9220585 L15.2860844,44.9220585 L15.2860844,38.5345029 L21.7138214,38.5345029 L21.7138214,44.9220585 Z M24.124211,35.3407719 C24.5676851,35.3413333 24.9270779,35.6984795 24.9276429,36.1391813 L24.9276429,44.9220585 L23.3207792,44.9220585 L23.3207792,38.5345029 C23.3199318,37.6529123 22.6009578,36.9385263 21.7138214,36.9375906 L15.2860844,36.9375906 C14.3989481,36.9384327 13.6800682,37.6529123 13.6791266,38.5345029 L13.6791266,44.9220585 L12.0721688,44.9220585 L12.0721688,36.1391813 C12.0727338,35.6984795 12.4321266,35.3413333 12.8756006,35.3407719 L24.124211,35.3407719 Z M16.8930422,32.9454503 L16.8930422,31.348538 C16.8936071,30.9078363 17.253,30.5506901 17.696474,30.5501287 L19.3034318,30.5501287 C19.7469058,30.5506901 20.1062987,30.9078363 20.1068636,31.348538 L20.1068636,32.9454503 C20.1062987,33.386152 19.7469058,33.7432982 19.3034318,33.7438596 L17.696474,33.7438596 C17.253,33.7432982 16.8936071,33.386152 16.8930422,32.9454503 Z M19.3034318,28.9532164 L12.8756948,28.9532164 C12.4322208,28.952655 12.0728279,28.5955088 12.072263,28.154807 L12.072263,20.1704327 C12.0728279,19.729731 12.4322208,19.3725848 12.8756948,19.3720234 L24.124211,19.3720234 C24.5676851,19.3725848 24.9270779,19.729731 24.9276429,20.1704327 L24.9276429,28.154807 C24.9270779,28.5955088 24.5676851,28.952655 24.124211,28.9532164 L19.3034318,28.9532164 Z" id="Shape" fill="#39516B" fill-rule="nonzero"></path>
            </g>
        </g>
    </g>
</svg>