<?xml version="1.0" encoding="UTF-8"?>
<svg width="48px" height="48px" viewBox="0 0 48 48" version="1.1" xmlns="http://www.w3.org/2000/svg" xmlns:xlink="http://www.w3.org/1999/xlink">
    <!-- Generator: Sketch 52.4 (67378) - http://www.bohemiancoding.com/sketch -->
    <title>032-idea</title>
    <desc>Created with Sketch.</desc>
    <g id="Welcome" stroke="none" stroke-width="1" fill="none" fill-rule="evenodd">
        <g id="Desktop-HD" transform="translate(-794.000000, -361.000000)">
            <g id="032-idea" transform="translate(794.000000, 361.000000)">
                <circle id="Oval" fill="#70FFE9" cx="24.5" cy="24.5" r="20.5"></circle>
                <path d="M31.3825312,20.1043125 L31.3783125,20.1044063 C31.0172812,18.5835 29.6485312,17.4482813 28.0187812,17.4482813 C26.1145312,17.4482813 24.5654062,18.9974063 24.5654062,20.9016563 L24.5654062,29.149125 C24.5654062,30.6546563 25.7901563,31.8795 27.2956875,31.8795 C28.2820312,31.8795 29.1837187,31.3461562 29.6656875,30.5014688 C31.2842812,30.456375 32.5873125,29.126625 32.5873125,27.4973438 C32.5873125,27.2781563 32.5626562,27.060375 32.5155937,26.848125 C33.247875,26.4463125 33.7455,25.6679063 33.7455,24.7753125 L33.7455,22.4671875 C33.7454063,21.16425 32.6854687,20.1043125 31.3825312,20.1043125 Z M31.8705,24.7754062 C31.87019,25.0447237 31.6519424,25.2629713 31.382625,25.2632812 C31.2485754,25.2636638 31.1203533,25.2085127 31.0284375,25.1109375 C30.6724687,24.7352812 30.0790312,24.7191563 29.7030937,25.0754062 C29.32725,25.4315625 29.3113125,26.0249062 29.6675625,26.40075 C29.9258111,26.6721809 30.2447603,26.8784842 30.5982188,27.0027187 C30.6736412,27.1567463 30.7127065,27.3260293 30.7124062,27.4975312 C30.7123125,28.1211562 30.2048437,28.628625 29.5810312,28.628625 C29.2529653,28.6285881 28.9410582,28.4861965 28.726125,28.2383437 C28.3866563,27.8473125 27.7945312,27.8055937 27.4036875,28.1449687 C27.0126563,28.4844375 26.9709375,29.0765625 27.3104062,29.4675 C27.4411524,29.6176507 27.5864561,29.7544755 27.7441875,29.8759688 C27.6095553,29.9596229 27.4542859,30.0041293 27.2957812,30.0045 C26.8242188,30.0045 26.4405,29.6207813 26.4405,29.149125 L26.4405,20.9016563 C26.4405,20.031375 27.1485937,19.3232813 28.018875,19.3232813 C28.88925,19.3232813 29.5973437,20.031375 29.5973437,20.9016563 L29.5973437,20.9219063 C29.238,21.3365625 29.01975,21.8766563 29.01975,22.4671875 C29.01975,22.9849688 29.4395625,23.4046875 29.95725,23.4046875 C30.4749375,23.4046875 30.89475,22.9849688 30.89475,22.4671875 C30.89475,22.1982188 31.1136562,21.9793125 31.382625,21.9793125 C31.6515937,21.9793125 31.8705,22.198125 31.8705,22.4671875 L31.8705,24.7754062 Z" id="Shape" fill="#39516B" fill-rule="nonzero"></path>
                <path d="M19.9801875,17.448375 C18.3504375,17.448375 16.9816875,18.5835 16.62075,20.1045 L16.6164375,20.1044063 C15.3135938,20.1044063 14.2535625,21.1643438 14.2535625,22.4672812 L14.2535625,24.7755 C14.2535625,25.6680937 14.7511875,26.4465 15.4834687,26.8483125 C15.4360075,27.0614639 15.4119588,27.2791599 15.41175,27.4975313 C15.41175,29.1268125 16.7147813,30.4564687 18.333375,30.5016562 C18.8154375,31.3463437 19.717125,31.8796875 20.703375,31.8796875 C22.2089063,31.8796875 23.4336562,30.6548437 23.4336562,29.1493125 L23.4336562,20.9018437 C23.4335625,18.9975 21.8844375,17.448375 19.9801875,17.448375 Z M21.55875,29.1492187 L21.5585625,29.1492187 C21.5585625,29.620875 21.1748437,30.0045937 20.7032812,30.0045937 C20.541375,30.0045937 20.38725,29.9577187 20.254875,29.8760625 C20.4126505,29.754621 20.5579591,29.6177916 20.6886563,29.4675937 C21.028125,29.0766562 20.9864062,28.4845312 20.595375,28.1450625 C20.2045312,27.8056875 19.6122188,27.8473125 19.2729375,28.2384375 C19.0580043,28.4862903 18.7460972,28.6286819 18.4180312,28.6287187 C17.7943125,28.6287187 17.2868437,28.12125 17.2868437,27.4975313 C17.2868437,27.3226875 17.3264062,27.1553438 17.4010312,27.0027187 C17.7545071,26.8785197 18.0734641,26.6722113 18.3316875,26.40075 C18.6879375,26.0249063 18.672,25.4315625 18.2961563,25.0754063 C17.9204062,24.71925 17.3269688,24.7352813 16.9708125,25.1109375 C16.8788967,25.2085127 16.7506746,25.2636638 16.616625,25.2632813 C16.3473076,25.2629713 16.12906,25.0447237 16.12875,24.7754063 L16.12875,22.4671875 C16.12906,22.1978701 16.3473076,21.9796225 16.616625,21.9793125 C16.8859424,21.9796225 17.10419,22.1978701 17.1045,22.4671875 C17.1045,22.9849687 17.5243125,23.4046875 18.042,23.4046875 C18.5596875,23.4046875 18.9795,22.9849687 18.9795,22.4671875 C18.9795,21.87675 18.7613438,21.3366562 18.402,20.9220937 L18.402,20.90175 C18.402,20.0314687 19.1100938,19.323375 19.980375,19.323375 C20.8506563,19.323375 21.55875,20.0314687 21.55875,20.90175 L21.55875,29.1492187 Z" id="Shape" fill="#39516B" fill-rule="nonzero"></path>
                <path d="M26.2517813,42.6496875 C26.0757055,42.4743687 25.8375357,42.3756507 25.5890625,42.375 C25.3424063,42.375 25.100625,42.4753125 24.92625,42.6496875 C24.751875,42.8240625 24.6515625,43.0659375 24.6515625,43.3125 C24.6515625,43.5590625 24.7517813,43.8009375 24.92625,43.9753125 C25.1024635,44.1504821 25.3405974,44.2491712 25.5890625,44.25 C25.8365625,44.25 26.0775,44.1496875 26.2517813,43.9753125 C26.4261563,43.8009375 26.5265625,43.5590625 26.5265625,43.3125 C26.5265625,43.0659375 26.42625,42.8240625 26.2517813,42.6496875 Z" id="Path" fill="#39516B"></path>
                <path d="M33.8657812,14.650125 C31.2824063,12.0379688 27.8378437,10.5755625 24.1666875,10.53225 C24.1110937,10.5315938 24.0559687,10.5313125 24.0006562,10.5313125 C20.4218437,10.5313125 17.0247187,11.896875 14.4188437,14.3869687 C11.7714375,16.9169062 10.2489375,20.3131875 10.132125,23.950125 C10.060125,26.1915937 10.5329062,28.4339062 11.4995625,30.434625 C12.4319062,32.364375 13.824,34.0789687 15.5252812,35.3930625 C16.7127187,36.3102187 17.4216562,37.7599687 17.4216562,39.271125 L17.4216562,44.898375 C17.4216562,46.6086562 18.8130938,48 20.5232812,48 L26.64525,48 C28.3554375,48 29.746875,46.6085625 29.746875,44.898375 L29.746875,39.8788125 C29.746875,38.2645312 30.5429062,36.7510312 31.8762187,35.8302187 C35.6325937,33.2359687 37.8751875,28.965375 37.8751875,24.4064062 C37.8751875,20.72925 36.4512187,17.2644375 33.8657812,14.650125 Z M27.871875,44.898375 C27.871875,45.5747812 27.3216562,46.125 26.64525,46.125 L20.5232813,46.125 C19.846875,46.125 19.2966562,45.5746875 19.2966562,44.898375 L19.2966562,44.25 L22.40175,44.25 C22.9194375,44.25 23.33925,43.8302812 23.33925,43.3125 C23.33925,42.7947187 22.9194375,42.375 22.40175,42.375 L19.2966562,42.375 L19.2966562,40.8163125 L27.871875,40.8163125 L27.871875,44.898375 Z M30.8106562,34.287375 C29.2310625,35.3781562 28.1979375,37.0726875 27.9369375,38.9413125 L19.2885,38.9413125 C19.1911875,36.9737812 18.2284687,35.1118125 16.671375,33.9091875 C13.6265625,31.5574688 11.882625,27.8569688 12.0061875,24.0104063 C12.212625,17.5825313 17.5800937,12.4063125 24.0034687,12.4063125 C24.0500625,12.4063125 24.097875,12.4065938 24.1445625,12.4071562 C30.68175,12.4842188 36.0001875,17.8670625 36.0001875,24.4064063 C36.0001875,28.3494375 34.0602187,32.0431875 30.8106562,34.287375 Z" id="Shape" fill="#39516B" fill-rule="nonzero"></path>
                <path d="M45.4921875,0 L36.2578125,0 C34.875,0 33.75,1.125 33.75,2.5078125 L33.75,10.6171875 C33.75,12 34.875,13.125 36.2578125,13.125 L45.4921875,13.125 C46.875,13.125 48,12 48,10.6171875 L48,2.5078125 C48,1.125 46.875,0 45.4921875,0 Z M46.125,10.6171875 C46.1245867,10.9665089 45.8415089,11.2495867 45.4921875,11.25 L36.2578125,11.25 C35.9084911,11.2495867 35.6254133,10.9665089 35.625,10.6171875 L35.625,2.5078125 C35.6254133,2.15849113 35.9084911,1.87541328 36.2578125,1.875 L45.4921875,1.875 C45.8415089,1.87541328 46.1245867,2.15849113 46.125,2.5078125 L46.125,10.6171875 Z" id="Shape" fill="#39516B" fill-rule="nonzero"></path>
                <path d="M10.6171875,0 L2.5078125,0 C1.125,0 0,1.125 0,2.5078125 L0,11.7421875 C0,13.125 1.125,14.25 2.5078125,14.25 L10.6171875,14.25 C12,14.25 13.125,13.125 13.125,11.7421875 L13.125,2.5078125 C13.125,1.125 12,0 10.6171875,0 Z M11.25,11.7421875 C11.2495867,12.0915089 10.9665089,12.3745867 10.6171875,12.375 L2.5078125,12.375 C2.15849113,12.3745867 1.87541328,12.0915089 1.875,11.7421875 L1.875,2.5078125 C1.87541328,2.15849113 2.15849113,1.87541328 2.5078125,1.875 L10.6171875,1.875 C10.9665089,1.87541328 11.2495867,2.15849113 11.25,2.5078125 L11.25,11.7421875 Z" id="Shape" fill="#39516B" fill-rule="nonzero"></path>
                <path d="M11.3671875,35.765625 L2.8828125,35.765625 C1.2931875,35.765625 0,37.0588125 0,38.6484375 L0,45.1171875 C0,46.7068125 1.2931875,48 2.8828125,48 L11.3671875,48 C12.9568125,48 14.25,46.7068125 14.25,45.1171875 L14.25,38.6484375 C14.25,37.0588125 12.9568125,35.765625 11.3671875,35.765625 Z M2.8828125,46.125 C2.3270625,46.125 1.875,45.6729375 1.875,45.1171875 L1.875,44.4509062 L4.34765625,41.97825 L8.49440625,46.125 L2.8828125,46.125 Z M12.375,45.1171875 C12.375,45.6729375 11.9229375,46.125 11.3671875,46.125 L11.0952187,46.125 C11.0533552,46.049548 11.0012341,45.9802636 10.9403438,45.919125 L8.33371875,43.3125 L10.4474062,41.1988125 L12.375,43.1265 L12.375,45.1171875 Z M12.375,40.474875 L11.1103125,39.2100937 C10.744176,38.8440375 10.1506365,38.8440375 9.7845,39.2100937 L7.0078125,41.9865938 L5.0105625,39.9893438 C4.644375,39.62325 4.0509375,39.62325 3.68465625,39.9893438 L1.875,41.7990938 L1.875,38.6484375 C1.875,38.0926875 2.3270625,37.640625 2.8828125,37.640625 L11.3671875,37.640625 C11.9229375,37.640625 12.375,38.0926875 12.375,38.6484375 L12.375,40.474875 Z" id="Shape" fill="#39516B" fill-rule="nonzero"></path>
                <path d="M44.0625,5.750625 L39.7111875,3.23840625 C39.4211277,3.07094013 39.0637598,3.07093786 38.7736978,3.2384003 C38.4836359,3.40586273 38.304946,3.71534901 38.3049375,4.05028125 L38.3049375,9.0748125 C38.304888,9.40976926 38.4835677,9.71929997 38.7736509,9.88677467 C39.0637341,10.0542494 39.4211355,10.0542161 39.7111875,9.8866875 L44.0625,7.374375 C44.3525905,7.20693851 44.5313025,6.897444 44.5313025,6.5625 C44.5313025,6.227556 44.3525905,5.91806149 44.0625,5.750625 Z M40.1799375,7.45096875 L40.1799375,5.67403125 L41.71875,6.5625 L40.1799375,7.45096875 Z" id="Shape" fill="#39516B" fill-rule="nonzero"></path>
                <path d="M9.68934375,9.42215625 L7.42621875,4.06153125 C7.2796592,3.71429086 6.93940263,3.48858052 6.5625,3.48858052 C6.18559737,3.48858052 5.8453408,3.71429086 5.69878125,4.06153125 L3.43565625,9.42215625 C3.234375,9.89925 3.45778125,10.4491875 3.93478125,10.6505625 C4.4120625,10.85175 4.96171875,10.6285312 5.1631875,10.1514375 L5.4058125,9.57665625 L7.71928125,9.57665625 L7.96190625,10.1514375 C8.1084747,10.4988596 8.44892651,10.7246578 8.826,10.7245313 C8.95117032,10.7244741 9.07505542,10.699289 9.1903125,10.6504688 C9.6673125,10.4490938 9.89071875,9.89915625 9.68934375,9.42215625 Z M6.19734375,7.70165625 L6.5625,6.83671875 L6.92765625,7.70165625 L6.19734375,7.70165625 Z" id="Shape" fill="#39516B" fill-rule="nonzero"></path>
                <path d="M45.4059375,33.9602813 C44.6668125,33.9602813 44.2189688,33.3672188 44.171625,33.3015938 C43.9491563,32.9502188 43.52775,32.79675 43.1271562,32.9117813 C42.72525,33.0270938 42.4545938,33.4045313 42.4545938,33.82275 L42.4545938,40.8676875 C41.8617874,40.5129188 41.1837293,40.3258817 40.492875,40.3265625 C38.3773125,40.3265625 36.6561563,42.0477188 36.6561563,44.1632813 C36.6561563,46.2788438 38.3773125,48 40.4929688,48 C42.608625,48 44.3296875,46.2788438 44.3296875,44.1632813 L44.3296875,35.6495625 C44.6751983,35.7724691 45.0392173,35.8352529 45.4059375,35.8351875 C46.0737188,35.8351875 46.1218125,36.32175 46.125,36.3710625 C46.125,36.8888438 46.5448125,37.3085625 47.0625,37.3085625 C47.5801875,37.3085625 48,36.8888438 48,36.3710625 C48,35.3700938 47.1951563,33.9602813 45.4059375,33.9602813 Z M40.4929688,46.125 C39.4112813,46.125 38.53125,45.2449687 38.53125,44.1632812 C38.53125,43.0815937 39.4112813,42.2015625 40.4929688,42.2015625 C41.5746563,42.2015625 42.4546875,43.0815937 42.4546875,44.1632812 C42.4546875,45.2449687 41.5746563,46.125 40.4929688,46.125 Z" id="Shape" fill="#39516B" fill-rule="nonzero"></path>
                <path d="M24,0 C23.4823125,0 23.0625,0.41971875 23.0625,0.9375 L23.0625,4.640625 C23.0625,5.15840625 23.4823125,5.578125 24,5.578125 C24.5176875,5.578125 24.9375,5.15840625 24.9375,4.640625 L24.9375,0.9375 C24.9375,0.41971875 24.5176875,0 24,0 Z" id="Path" fill="#39516B"></path>
                <path d="M24.6627188,7.2121875 C24.4865512,7.03700636 24.2484407,6.93831293 24,6.9375 C23.7524062,6.9375 23.5115625,7.0378125 23.3371875,7.2121875 C23.1628125,7.3865625 23.0625,7.6284375 23.0625,7.875 C23.0625,8.1215625 23.1627187,8.3634375 23.3371875,8.5378125 C23.5116563,8.7121875 23.7534375,8.8125 24,8.8125 C24.2465625,8.8125 24.4884375,8.7121875 24.6627188,8.5378125 C24.8371875,8.3634375 24.9375,8.1215625 24.9375,7.875 C24.9375,7.6284375 24.8371875,7.3865625 24.6627188,7.2121875 Z" id="Path" fill="#39516B"></path>
                <path d="M47.0625,23.0744062 L40.9768125,23.0744062 C40.459125,23.0744062 40.0393125,23.494125 40.0393125,24.0119062 C40.0393125,24.5296875 40.459125,24.9494062 40.9768125,24.9494062 L47.0625,24.9494062 C47.5801875,24.9494062 48,24.5296875 48,24.0119062 C48,23.494125 47.5801875,23.0744062 47.0625,23.0744062 Z" id="Path" fill="#39516B"></path>
                <path d="M7.047,23.0625 L0.9375,23.0625 C0.4198125,23.0625 0,23.4822188 0,24 C0,24.5177813 0.4198125,24.9375 0.9375,24.9375 L7.047,24.9375 C7.5646875,24.9375 7.9845,24.5177813 7.9845,24 C7.9845,23.4822187 7.5646875,23.0625 7.047,23.0625 Z" id="Path" fill="#39516B"></path>
            </g>
        </g>
    </g>
</svg>