<?xml version="1.0" encoding="UTF-8"?>
<svg width="43px" height="50px" viewBox="0 0 43 50" version="1.1" xmlns="http://www.w3.org/2000/svg" xmlns:xlink="http://www.w3.org/1999/xlink">
    <!-- Generator: Sketch 52.4 (67378) - http://www.bohemiancoding.com/sketch -->
    <title>038-medal</title>
    <desc>Created with Sketch.</desc>
    <g id="Welcome" stroke="none" stroke-width="1" fill="none" fill-rule="evenodd">
        <g id="Desktop-HD" transform="translate(-994.000000, -263.000000)">
            <g id="038-medal" transform="translate(994.000000, 263.000000)">
                <circle id="Oval" fill="#70FFE9" cx="27" cy="16" r="16"></circle>
                <path d="M29.0761454,17.077625 C28.9646219,16.7382952 28.6681872,16.4910298 28.3114273,16.43975 L24.1910991,15.8481875 L22.3474978,12.153125 C22.1878848,11.8332649 21.8587128,11.6307794 21.4982952,11.63075 L21.4981057,11.63075 C21.1375756,11.6308453 20.8083656,11.8335359 20.6489031,12.1535937 L18.8073855,15.8495937 L14.6873414,16.4433125 C14.3305217,16.4946158 14.0340994,16.7420436 13.9227785,17.0815039 C13.8114576,17.4209641 13.9045577,17.7935439 14.1629119,18.0425 L17.1450661,20.9182812 L16.4423855,24.9801875 C16.3815395,25.3319134 16.5277004,25.6873318 16.819415,25.8970073 C17.1111295,26.1066829 17.4978074,26.1342526 17.81687,25.968125 L21.5015154,24.0494375 L25.1872026,25.9661562 C25.2623824,26.3994698 25.6316788,26.7228629 26.075346,26.743904 C26.5190132,26.7649451 26.9178541,26.4779811 27.0345427,26.053767 C27.1512313,25.6295528 26.9544177,25.1820592 26.5612137,24.9775625 L25.8563546,20.9160312 L28.8369934,18.03875 C29.0949286,17.7894883 29.1876265,17.4169457 29.0761454,17.077625 Z M24.1771762,19.917875 C23.9540106,20.1333124 23.8522195,20.4436419 23.9049692,20.74775 L24.3692555,23.4229062 L21.9416498,22.1604687 C21.6656905,22.0169359 21.3360467,22.017006 21.0601498,22.1606562 L18.633207,23.4244062 L19.0960727,20.7489687 C19.1487102,20.4448267 19.0467742,20.1345224 18.8234868,19.9191875 L16.859315,18.0250625 L19.5729559,17.6340312 C19.8814242,17.5895745 20.1480487,17.3977407 20.2859604,17.1210312 L21.4988634,14.6867187 L22.7131872,17.1204687 C22.8512362,17.3971188 23.117974,17.5888174 23.4264758,17.6330937 L26.1403062,18.0227187 L24.1771762,19.917875 Z" id="Shape" fill="#39516B" fill-rule="nonzero"></path>
                <path d="M42.7857577,43.1906563 L34.9571057,29.7122188 C37.3212533,26.7911563 38.737696,23.08775 38.737696,19.0625 C38.737696,9.65421875 31.0047996,2 21.4998106,2 C11.9948216,2 4.26192511,9.65421875 4.26192511,19.0625 C4.26192511,23.08775 5.67827313,26.7911563 8.04251542,29.7122188 L0.213863436,43.1906563 C0.0342575973,43.5002492 0.0478223105,43.8839296 0.248852836,44.1803379 C0.449883361,44.4767462 0.803505168,44.6344618 1.161,44.5871563 L7.27126211,43.775 L9.61580396,49.4188438 C9.75313496,49.7493775 10.068381,49.9738705 10.4286463,49.997685 C10.7889116,50.0214995 11.1315161,49.8404921 11.3120308,49.5309688 L19.2152225,35.9815625 C19.2164537,35.9795 19.2173062,35.9773438 19.2185374,35.9751875 C19.9652599,36.0733438 20.7265683,36.1249063 21.5,36.1249063 C22.2734317,36.1249063 23.0347401,36.0733438 23.7814626,35.9751875 C23.7826938,35.97725 23.7835463,35.9794063 23.7847775,35.9815625 L31.6879692,49.5309688 C31.8685308,49.8404272 32.2111137,50.0213788 32.5713457,49.9975665 C32.9315777,49.9737542 33.2468098,49.7493193 33.384196,49.4188438 L35.7288326,43.775 L41.8390947,44.5871563 C42.1966441,44.6347603 42.5504503,44.4770893 42.7514714,44.1805625 C42.9521088,43.8838824 42.9653966,43.500241 42.7857577,43.1906563 Z M10.6348282,46.9417812 L8.92808811,42.8334687 L10.4597026,40.3595 C10.7330463,39.9180312 10.5930595,39.3408125 10.1470529,39.0703437 C9.70104626,38.799875 9.11789427,38.9383437 8.84464537,39.3798125 L7.29692952,41.87975 L2.81413216,42.4755313 L9.37551542,31.1790313 C11.5247577,33.28625 14.2294009,34.8390313 17.2503877,35.5999063 L10.6348282,46.9417813 Z M21.4997159,34.25 C13.0392291,34.25 6.15610352,27.4369062 6.15610352,19.0625 C6.15610352,10.6880938 13.0392291,3.875 21.4997159,3.875 C29.9602026,3.875 36.8433282,10.6880938 36.8433282,19.0625 C36.8433282,27.4369062 29.9602026,34.25 21.4997159,34.25 Z M35.7025969,41.87975 L34.1548811,39.3798125 C33.8816322,38.9383438 33.2984802,38.7996875 32.8524736,39.0703438 C32.406467,39.3409063 32.2664802,39.9180313 32.5398238,40.3595 L34.0714383,42.8334688 L32.3646982,46.9417813 L25.7491388,35.5999063 C28.7701256,34.8390313 31.4748634,33.28625 33.624011,31.1790313 L40.1853943,42.4755313 L35.7025969,41.87975 Z" id="Shape" fill="#39516B" fill-rule="nonzero"></path>
                <path d="M21.4997159,6.875 C19.3860859,6.875 17.3007753,7.41425 15.4691079,8.434625 C15.0132511,8.6885 14.8516696,9.2601875 15.1081542,9.71140625 C15.3646388,10.162625 15.9422026,10.32275 16.3980595,10.0686875 C17.9467225,9.206 19.710859,8.75 21.4997159,8.75 C27.244478,8.75 31.9182181,13.3761875 31.9182181,19.0625 C31.9182181,20.6163125 31.5781013,22.1092812 30.9073392,23.499875 C30.6820154,23.967125 30.8819559,24.5267187 31.3540088,24.7498437 C31.4811962,24.8101708 31.6204309,24.8415018 31.761467,24.8415312 C32.1149383,24.8415312 32.4542974,24.6445625 32.616826,24.3077187 C33.4101476,22.662875 33.8124912,20.898125 33.8124912,19.0625 C33.8124912,12.3423125 28.2890749,6.875 21.4997159,6.875 Z" id="Path" fill="#39516B"></path>
                <path d="M30.3131057,26.2270625 C29.9377555,25.8665 29.3381233,25.8754062 28.9738546,26.2469375 L28.9528282,26.2683125 C28.5874229,26.6387187 28.5945264,27.2323437 28.9687401,27.5940312 C29.1454557,27.7652818 29.3830074,27.8610525 29.630315,27.86075 C29.8855326,27.8610924 30.1300224,27.7591647 30.3080859,27.5781875 L30.3330903,27.5527812 C30.6974537,27.18125 30.6884559,26.5877187 30.3131057,26.2270625 Z" id="Path" fill="#39516B"></path>
                <path d="M27.8066035,28.4698438 C27.5541916,28.016375 26.9781432,27.8512813 26.5200132,28.1012188 C24.9921872,28.9345625 23.2561806,29.375 21.4997159,29.375 C15.7549537,29.375 11.0812137,24.7488125 11.0812137,19.0625 C11.0812137,17.5729063 11.3948106,16.1362813 12.013196,14.7925625 C12.2300903,14.321375 12.0199207,13.7654375 11.5438899,13.55075 C11.067859,13.3361563 10.506207,13.5440938 10.2893128,14.0152813 C9.55774449,15.6047188 9.18684581,17.3028125 9.18684581,19.0625 C9.18684581,25.7826875 14.7103568,31.25 21.4996211,31.25 C23.5748921,31.25 25.6270529,30.7290313 27.4341894,29.7433438 C27.8923194,29.4934063 28.0591101,28.9233125 27.8066035,28.4698438 Z" id="Path" fill="#39516B"></path>
                <path d="M13.8280991,10.7092812 C13.4453612,10.3563125 12.8460132,10.3775 12.489511,10.75625 L12.4684846,10.7786562 C12.1133084,11.1587187 12.1365132,11.751875 12.5204824,12.1034375 C12.6952457,12.2640015 12.9249545,12.3531012 13.1633987,12.3528125 C13.4275189,12.3531656 13.6797295,12.2440672 13.8588811,12.0519687 L13.8755507,12.03425 C14.2320529,11.6554062 14.210837,11.0621562 13.8280991,10.7092812 Z" id="Path" fill="#39516B"></path>
            </g>
        </g>
    </g>
</svg>