<?xml version="1.0" encoding="UTF-8"?>
<svg width="53px" height="56px" viewBox="0 0 53 56" version="1.1" xmlns="http://www.w3.org/2000/svg" xmlns:xlink="http://www.w3.org/1999/xlink">
    <!-- Generator: Sketch 52.4 (67378) - http://www.bohemiancoding.com/sketch -->
    <title>gif</title>
    <desc>Created with Sketch.</desc>
    <g id="Welcome" stroke="none" stroke-width="1" fill="none" fill-rule="evenodd">
        <g id="Desktop-HD" transform="translate(-610.000000, -641.000000)">
            <g id="gif" transform="translate(610.000000, 641.000000)">
                <rect id="Rectangle" fill="#70FFE9" x="15" y="0" width="38" height="38"></rect>
                <path d="M18.3138671,17.6013099 L17.5164524,17.6013099 C17.1036171,17.6013099 16.7688353,17.9371228 16.7688353,18.3514386 C16.7688353,18.7657544 17.1035238,19.1015673 17.5164524,19.1015673 L17.56625,19.1015673 L17.56625,20.0016842 L15.8717321,20.0016842 L15.8717321,16.701193 L18.3138671,16.701193 C18.7267024,16.701193 19.0614841,16.3653801 19.0614841,15.9510643 C19.0614841,15.5367485 18.7267956,15.2009357 18.3138671,15.2009357 L15.1241151,15.2009357 C14.7112798,15.2009357 14.376498,15.5367485 14.376498,15.9510643 L14.376498,20.7517193 C14.376498,21.1659415 14.7111865,21.501848 15.1241151,21.501848 L18.3138671,21.501848 C18.7267024,21.501848 19.0614841,21.1660351 19.0614841,20.7517193 L19.0614841,18.351345 C19.0614841,17.9371228 18.7267024,17.6013099 18.3138671,17.6013099 Z" id="Path" fill="#39516B"></path>
                <path d="M21.503619,15.2009357 C21.0907837,15.2009357 20.756002,15.5367485 20.756002,15.9510643 L20.756002,20.7517193 C20.756002,21.1659415 21.0906905,21.501848 21.503619,21.501848 C21.9165476,21.501848 22.2512361,21.1660351 22.2512361,20.7517193 L22.2512361,15.9510643 C22.2511429,15.5368421 21.9164544,15.2009357 21.503619,15.2009357 Z" id="Path" fill="#39516B"></path>
                <path d="M27.0856151,17.6013099 L25.4907857,17.6013099 C25.4739067,17.6013099 25.457494,17.6027135 25.4409881,17.6038363 L25.4409881,16.701193 L27.0857083,16.701193 C27.4985437,16.701193 27.8333254,16.3653801 27.8333254,15.9510643 C27.8333254,15.5367485 27.4986369,15.2009357 27.0857083,15.2009357 L24.6934643,15.2009357 C24.280629,15.2009357 23.9458472,15.5367485 23.9458472,15.9510643 L23.9458472,20.7517193 C23.9458472,21.1659415 24.2805357,21.501848 24.6934643,21.501848 C25.1062996,21.501848 25.4410813,21.1660351 25.4410813,20.7517193 L25.4410813,19.0989474 C25.4575873,19.1000702 25.4740933,19.1014737 25.490879,19.1014737 L27.0857083,19.1014737 C27.4985437,19.1014737 27.8333254,18.7656608 27.8333254,18.351345 C27.8333254,17.9370292 27.4984504,17.6013099 27.0856151,17.6013099 Z" id="Path" fill="#39516B"></path>
                <path d="M32.6676111,28.802807 C29.1774881,28.802807 26.337998,31.6518363 26.337998,35.1536842 C26.337998,38.6555322 29.1773948,41.5045614 32.6676111,41.5045614 C36.1577341,41.5045614 38.9972242,38.6556257 38.9972242,35.1536842 C38.997131,31.6517427 36.1577341,28.802807 32.6676111,28.802807 Z M32.6676111,40.0043041 C30.0019464,40.0043041 27.8332321,37.8283041 27.8332321,35.1536842 C27.8332321,32.4790643 30.0019464,30.3030643 32.6676111,30.3030643 C35.3332758,30.3030643 37.5019901,32.4790643 37.5019901,35.1536842 C37.5019901,37.8283041 35.3332758,40.0043041 32.6676111,40.0043041 Z" id="Shape" fill="#39516B" fill-rule="nonzero"></path>
                <path d="M37.9386984,50.5862924 L15.6107143,31.3837661 C15.1350258,30.9745965 14.3765913,31.3260351 14.3765913,31.9532164 L14.3765913,51.1558363 C14.3765913,51.5700585 14.7112798,51.9059649 15.1242083,51.9059649 L37.4521925,51.9059649 C38.1301488,51.9058713 38.4547659,51.0300819 37.9386984,50.5862924 Z M15.8717321,50.4057076 L15.8717321,33.5840936 L35.4311925,50.4057076 L15.8717321,50.4057076 Z" id="Shape" fill="#39516B" fill-rule="nonzero"></path>
                <path d="M39.8444365,42.4045848 L36.6546845,42.4045848 C36.2418492,42.4045848 35.9070675,42.7403977 35.9070675,43.1547135 L35.9070675,46.3551813 C35.9070675,46.7694035 36.241756,47.1053099 36.6546845,47.1053099 L39.8444365,47.1053099 C40.2572718,47.1053099 40.5920536,46.7694971 40.5920536,46.3551813 L40.5920536,43.1547135 C40.5920536,42.7404912 40.2572718,42.4045848 39.8444365,42.4045848 Z M39.0968194,45.6050526 L37.4023016,45.6050526 L37.4023016,43.9048421 L39.0968194,43.9048421 L39.0968194,45.6050526 Z" id="Shape" fill="#39516B" fill-rule="nonzero"></path>
                <path d="M23.8958631,28.802807 L20.7061111,28.802807 C20.2932758,28.802807 19.958494,29.1386199 19.958494,29.5529357 L19.958494,32.7534035 C19.958494,33.1676257 20.2931825,33.5035322 20.7061111,33.5035322 L23.8958631,33.5035322 C24.3086984,33.5035322 24.6434802,33.1677193 24.6434802,32.7534035 L24.6434802,29.5529357 C24.6434802,29.1386199 24.3086984,28.802807 23.8958631,28.802807 Z M23.148246,32.0031813 L21.4537282,32.0031813 L21.4537282,30.3029708 L23.148246,30.3029708 L23.148246,32.0031813 Z" id="Shape" fill="#39516B" fill-rule="nonzero"></path>
                <path d="M46.2238472,47.9054035 C46.6366825,47.9054035 46.9714643,47.5695906 46.9714643,47.1552749 L46.9714643,15.9510643 C46.9714643,15.7545731 46.8909861,15.5595789 46.752504,15.4207251 L39.5756786,8.21978947 C39.4370099,8.08074854 39.2428552,8 39.0469286,8 L9.54202579,8 C8.25045833,8 7.19957937,9.05431579 7.19957937,10.3503158 L7.19957937,11.2004678 L0.770371032,11.2004678 C0.118805556,11.2004678 -0.219613095,12.0180585 0.24180754,12.4809357 L6.09265476,18.3514386 L0.241900794,24.2219415 C-0.219426587,24.6848187 0.118805556,25.5024094 0.770464286,25.5024094 L7.19976587,25.5024094 L7.19976587,53.5562105 C7.19976587,54.8522105 8.25055159,55.9065263 9.5422123,55.9065263 L44.6291111,55.9065263 C45.9207718,55.9065263 46.9715575,54.8522105 46.9715575,53.5562105 L46.9715575,50.3557427 C46.9715575,49.9415205 46.636869,49.605614 46.2239405,49.605614 C45.8110119,49.605614 45.4763234,49.9414269 45.4763234,50.3557427 L45.4763234,53.5562105 C45.4763234,54.0249825 45.0962202,54.4063626 44.6290179,54.4063626 L9.54211905,54.4063626 C9.07491667,54.4063626 8.69481349,54.0249825 8.69481349,53.5562105 L8.69481349,25.5023158 L13.5291925,25.5023158 C13.9420278,25.5023158 14.2768095,25.1665029 14.2768095,24.7521871 C14.2768095,24.3378713 13.942121,24.0020585 13.5291925,24.0020585 L2.57520833,24.0020585 L7.67843849,18.8816842 C7.97041667,18.5887251 7.97041667,18.1137778 7.67843849,17.8209123 L2.57520833,12.7006316 L35.1096528,12.7006316 L35.1096528,24.002152 L16.7190377,24.002152 C16.3062024,24.002152 15.9714206,24.3379649 15.9714206,24.7522807 C15.9714206,25.1665965 16.3061091,25.5024094 16.7190377,25.5024094 L35.8573631,25.5024094 C36.2701984,25.5024094 36.6049802,25.1665965 36.6049802,24.7522807 L36.6049802,11.9505029 C36.6049802,11.5362807 36.2702917,11.2003743 35.8573631,11.2003743 L8.69490675,11.2003743 L8.69490675,10.3502222 C8.69490675,9.88145029 9.07500992,9.50007018 9.5422123,9.50007018 L38.2994048,9.50007018 L38.2994048,14.3506901 C38.2994048,15.6466901 39.3501905,16.7010058 40.6418512,16.7010058 L45.4762302,16.7010058 L45.4762302,47.1550877 C45.4762302,47.5695906 45.8110119,47.9054035 46.2238472,47.9054035 Z M40.6417579,15.2009357 C40.1745556,15.2009357 39.7944524,14.8195556 39.7944524,14.3507836 L39.7944524,10.5609357 L44.4189167,15.2009357 L40.6417579,15.2009357 Z" id="Shape" fill="#39516B" fill-rule="nonzero"></path>
            </g>
        </g>
    </g>
</svg>