<?xml version="1.0" encoding="UTF-8"?>
<svg width="58px" height="52px" viewBox="0 0 58 52" version="1.1" xmlns="http://www.w3.org/2000/svg" xmlns:xlink="http://www.w3.org/1999/xlink">
    <!-- Generator: Sketch 52.4 (67378) - http://www.bohemiancoding.com/sketch -->
    <title>Group 25</title>
    <desc>Created with Sketch.</desc>
    <g id="Welcome" stroke="none" stroke-width="1" fill="none" fill-rule="evenodd">
        <g id="Desktop-HD" transform="translate(-600.000000, -361.000000)">
            <g id="Group-25" transform="translate(592.000000, 361.000000)">
                <polygon id="Rectangle" fill="#70FFE9" transform="translate(26.000000, 44.000000) rotate(-315.000000) translate(-26.000000, -44.000000) " points="8.17157288 26.1715729 43.8284271 36.3350603 18.3350603 61.8284271"></polygon>
                <path d="M58.498875,31.1744062 L58.498875,27.8259375 C60.2185313,27.4041562 61.4985938,25.8504375 61.4985938,24.0024375 C61.4985938,22.1544375 60.2185313,20.600625 58.498875,20.1789375 L58.498875,16.8238125 C62.7109688,16.355625 65.9975625,12.7744687 65.9975625,8.43946875 C65.9975625,3.7875 62.212875,0.00271875 57.5608125,0.00271875 C54.1085625,0.00271875 51.134625,2.08725 49.8299063,5.06334375 L45.6539063,5.06334375 C45.232125,3.3436875 43.6783125,2.063625 41.8305,2.063625 C39.6595313,2.063625 37.893375,3.82978125 37.893375,6.00075 C37.893375,8.17171875 39.6595313,9.937875 41.8305,9.937875 C43.6784063,9.937875 45.2322188,8.6578125 45.6539063,6.93815625 L49.2579375,6.93815625 C49.1686737,7.43357429 49.1238704,7.9359795 49.1240625,8.439375 C49.1240625,12.77475 52.4113125,16.3562812 56.6240625,16.8238125 L56.6240625,20.1788437 C55.2049688,20.5269375 54.0859688,21.6458437 53.7380625,23.0649375 L45.93075,23.0649375 C45.5089688,21.3452812 43.9551563,20.0652187 42.1073438,20.0652187 C40.2595313,20.0652187 38.705625,21.3452812 38.2839375,23.0649375 L34.8212813,23.0649375 C34.387125,19.1556562 31.2713438,16.0439062 27.3601875,15.616125 L27.3601875,6.93834375 L31.2664688,6.93834375 C31.7841563,6.93834375 32.203875,6.51853125 32.203875,6.0009375 C32.203875,5.48334375 31.7841563,5.06353125 31.2664688,5.06353125 L26.4226875,5.06353125 C25.905,5.06353125 25.4852813,5.48334375 25.4852813,6.0009375 L25.4852813,15.6195937 C21.2795625,16.0937812 18,19.6720312 18,24.00225 C18,25.9239375 18.6634688,27.804375 19.8681563,29.2971562 C20.9132813,30.5922187 22.3277813,31.5531562 23.9020313,32.050125 L19.6759688,39.3698437 C19.2212299,39.3699969 18.8322139,39.6965614 18.7532894,40.1443989 C18.674365,40.5922364 18.9283077,41.0321124 19.355598,41.1877095 C19.7828884,41.3433066 20.2602213,41.1697235 20.48775,40.776 L23.0639063,40.776 L23.0639063,47.0595937 C23.0639063,47.5771875 23.483625,47.997 24.0013125,47.997 L28.8758438,47.997 C29.393625,47.997 29.81325,47.5771875 29.81325,47.0595937 L29.81325,40.776 L32.3924063,40.776 C32.7273663,40.7761128 33.0369227,40.5974528 33.2043929,40.3073632 C33.3718631,40.0172736 33.3717848,39.6598599 33.2041875,39.3698437 L28.9783125,32.0503125 C32.1584063,31.0543125 34.4534063,28.2690937 34.819875,24.93975 L38.2835625,24.93975 C38.6218125,26.3188125 39.688125,27.4141875 41.0503125,27.79425 L41.0503125,31.392375 C41.0503125,31.9099687 41.4700313,32.3297812 41.9877188,32.3297812 C42.5055,32.3297812 42.925125,31.9099687 42.925125,31.392375 L42.925125,27.8533125 C44.4006563,27.5401875 45.5727188,26.3983125 45.9304688,24.9396562 L53.7377813,24.9396562 C54.085875,26.35875 55.2047813,27.47775 56.6237813,27.82575 L56.6237813,31.1745937 C52.4121563,31.6433437 49.1262188,35.2242187 49.1262188,39.55875 C49.1262188,40.071 49.17225,40.5726562 49.2600938,41.0600625 L45.8109375,41.0600625 C45.3891563,39.3404062 43.8353438,38.0603437 41.9875313,38.0603437 C39.8165625,38.0603437 38.0504063,39.8265 38.0504063,41.9974687 C38.0504063,44.1684375 39.8165625,45.9345937 41.9875313,45.9345937 C43.8354375,45.9345937 45.38925,44.6545312 45.8109375,42.934875 L49.831875,42.934875 C51.1366875,45.9110625 54.110625,47.9955 57.5627813,47.9955 C62.21475,47.9955 65.9995313,44.2108125 65.9995313,39.55875 C66,35.2231875 62.7121875,31.6414687 58.498875,31.1744062 Z M41.8304063,8.06325 C40.6932188,8.06325 39.7680938,7.138125 39.7680938,6.0009375 C39.7680938,4.86375 40.6932188,3.938625 41.8304063,3.938625 C42.9675938,3.938625 43.8927188,4.86375 43.8927188,6.0009375 C43.8927188,7.138125 42.9675938,8.06325 41.8304063,8.06325 Z M27.9385313,46.1222812 L24.9388125,46.1222812 L24.9388125,40.7760937 L27.9385313,40.7760937 L27.9385313,46.1222812 Z M30.7688438,38.9012812 L22.1115,38.9012812 L26.4402188,31.4037187 L30.7688438,38.9012812 Z M30.84,28.8755625 C30.0357149,29.6020197 29.0631649,30.1167285 28.0101563,30.3732187 L27.252,29.0601562 C27.084577,28.770107 26.7751203,28.5914224 26.4402188,28.5914224 C26.1053172,28.5914224 25.7958605,28.770107 25.6284375,29.0601562 L24.8695313,30.3747187 C23.7830625,30.109125 22.8180938,29.5880625 22.0335938,28.8816562 L22.0335938,28.7454375 C22.0335938,28.0740937 22.5126563,27.4974375 23.1726563,27.3743437 L24.07875,27.2053125 C24.6992813,27.7780312 25.5278438,28.12875 26.4369375,28.12875 C27.3460313,28.12875 28.1744063,27.7780312 28.7950313,27.2053125 L29.7012188,27.3743437 C30.3613887,27.497678 30.8400116,28.0738456 30.8401875,28.7454375 L30.8401875,28.8755625 L30.84,28.8755625 Z M24.8309063,24.6482812 L24.8309063,22.9934062 C24.8309063,22.1080312 25.5512813,21.38775 26.4366563,21.38775 C27.3220313,21.38775 28.0424063,22.1080312 28.0424063,22.9934062 L28.0424063,24.6482812 C28.0424063,25.5336562 27.3220313,26.2540312 26.4366563,26.2540312 C25.551375,26.2540312 24.8309063,25.5336562 24.8309063,24.6482812 Z M32.2472813,27.0624375 C31.77825,26.2827187 30.991125,25.7079375 30.0447188,25.5314062 L29.8140938,25.488375 C29.8825978,25.2135649 29.9172299,24.9314072 29.9172188,24.6481875 L29.9172188,22.9933125 C29.9172188,21.0741562 28.3559063,19.51275 26.4365625,19.51275 C24.5172188,19.51275 22.9559063,21.0740625 22.9559063,22.9933125 L22.9559063,24.6481875 C22.9559063,24.937875 22.9920938,25.219125 23.0590313,25.488375 L22.8285,25.5314062 C21.8809688,25.708125 21.0931875,26.2838437 20.6243438,27.064875 C20.1435,26.146875 19.8747188,25.1037187 19.8747188,24.00225 C19.8747188,20.3839687 22.818375,17.4403125 26.4366563,17.4403125 C30.0548438,17.4403125 32.9985938,20.383875 32.9985938,24.00225 C32.9985938,25.1023125 32.7289688,26.1450937 32.2472813,27.0624375 Z M42.1071563,26.06475 C40.9699688,26.06475 40.0448438,25.139625 40.0448438,24.0024375 C40.0448438,22.86525 40.9699688,21.940125 42.1071563,21.940125 C43.2443438,21.940125 44.1694688,22.86525 44.1694688,24.0024375 C44.1694688,25.139625 43.2443438,26.06475 42.1071563,26.06475 Z M41.9878125,44.0599687 C40.850625,44.0599687 39.9255,43.1348437 39.9255,41.9976562 C39.9255,40.8604687 40.850625,39.9353437 41.9878125,39.9353437 C43.125,39.9353437 44.050125,40.8604687 44.050125,41.9976562 C44.050125,43.1348437 43.125,44.0599687 41.9878125,44.0599687 Z M51.7564688,11.4953437 C51.2581735,10.5539425 50.998093,9.50480117 50.9989688,8.43965625 C50.9989688,4.82146875 53.942625,1.87771875 57.5609063,1.87771875 C61.1790938,1.87771875 64.1228438,4.821375 64.1228438,8.43965625 C64.1237257,9.50461848 63.8637447,10.5535875 63.365625,11.494875 C62.8959375,10.7204062 62.1115313,10.1498437 61.16925,9.97396875 L60.9387188,9.9309375 C61.0072226,9.65615921 61.0418548,9.37403253 61.0418438,9.09084375 L61.0418438,7.43596875 C61.0418438,5.51671875 59.4805313,3.9553125 57.5611875,3.9553125 C55.6419375,3.9553125 54.0805313,5.516625 54.0805313,7.43596875 L54.0805313,9.09084375 C54.0805313,9.38053125 54.116625,9.6616875 54.1836563,9.9309375 L53.9530313,9.97396875 C53.0105625,10.1498437 52.2260625,10.7205 51.7564688,11.4953437 Z M59.1669375,7.43596875 L59.1669375,9.09084375 C59.1669375,9.97621875 58.4465625,10.6965937 57.5611875,10.6965937 C56.6758125,10.6965937 55.9554375,9.97621875 55.9554375,9.09084375 L55.9554375,7.43596875 C55.9554375,6.55059375 56.6758125,5.83021875 57.5611875,5.83021875 C58.4464688,5.830125 59.1669375,6.55059375 59.1669375,7.43596875 Z M53.1578438,13.3006875 L53.1578438,13.1880937 C53.1578438,12.51675 53.6369063,11.9400937 54.2968125,11.8169062 L55.203,11.6479687 C55.8235313,12.2206875 56.6520938,12.5714062 57.5611875,12.5714062 C58.4702813,12.5714062 59.29875,12.2206875 59.919375,11.647875 L60.8254688,11.8169062 C61.4856905,11.9402416 61.9643546,12.5164507 61.9645313,13.1880937 L61.9645313,13.3002187 C60.7993125,14.356875 59.254125,15.0015 57.5609063,15.0015 C55.8679688,15.0015 54.322875,14.3570625 53.1578438,13.3006875 Z M55.4991563,24.0024375 C55.4991563,22.86525 56.4242813,21.940125 57.5614688,21.940125 C58.6986563,21.940125 59.6237813,22.86525 59.6237813,24.0024375 C59.6237813,25.139625 58.6986563,26.06475 57.5614688,26.06475 C56.4242813,26.06475 55.4991563,25.139625 55.4991563,24.0024375 Z M61.9665,44.4197812 C60.8012813,45.47625 59.2561875,46.1207812 57.5631563,46.1207812 C55.870125,46.1207812 54.325125,45.47625 53.1599063,44.4197812 L53.1599063,44.302125 C53.1599063,43.6307812 53.6389688,43.054125 54.2989688,42.9310312 L55.2050625,42.762 C55.8255938,43.3347187 56.6541563,43.6854375 57.56325,43.6854375 C58.4723438,43.6854375 59.3007188,43.3347187 59.9213438,42.762 L60.8275313,42.9310312 C61.4877012,43.0543655 61.9663241,43.6305331 61.9665,44.302125 L61.9665,44.4197812 Z M55.9575,40.2049687 L55.9575,38.5501875 C55.9575,37.6648125 56.677875,36.9444375 57.56325,36.9444375 C58.448625,36.9444375 59.169,37.6648125 59.169,38.5501875 L59.169,40.2049687 C59.169,41.0903437 58.448625,41.8107187 57.56325,41.8107187 C56.677875,41.8107187 55.9575,41.0903437 55.9575,40.2049687 Z M63.3692813,42.6114375 C62.8996875,41.8355625 62.1147188,41.263875 61.1713125,41.088 L60.9406875,41.0449687 C61.0091915,40.7701587 61.0438237,40.4880009 61.0438125,40.2047812 L61.0438125,38.55 C61.0438125,36.63075 59.4825,35.0693437 57.5631563,35.0693437 C55.6438125,35.0693437 54.0825,36.6306562 54.0825,38.55 L54.0825,40.2047812 C54.0825,40.4944687 54.1186875,40.7757187 54.185625,41.0449687 L53.9550938,41.088 C53.0116875,41.263875 52.226625,41.8354687 51.7570313,42.6114375 C51.2597947,41.6708476 51.0002787,40.6228702 51.001125,39.5589375 C51.0013125,35.94075 53.9449688,32.997 57.56325,32.997 C61.1814375,32.997 64.1251875,35.9406562 64.1251875,39.5589375 C64.1260566,40.6228729 63.8665392,41.6708558 63.3692813,42.6114375 Z" id="Shape" fill="#39516B" fill-rule="nonzero"></path>
                <path d="M35.246625,5.33821875 C35.0700724,5.16304162 34.8316797,5.06437083 34.5829687,5.06353125 C34.3364062,5.06353125 34.0945312,5.16375 33.92025,5.33821875 C33.7450946,5.51440346 33.6464058,5.75250292 33.6455625,6.0009375 C33.6455625,6.2475 33.745875,6.489375 33.92025,6.6635625 C34.0964023,6.838778 34.3345147,6.93750589 34.5829687,6.93834375 C34.8304687,6.93834375 35.0714062,6.83803125 35.246625,6.6635625 C35.4215343,6.48732883 35.5198982,6.24923441 35.520375,6.0009375 C35.520375,5.754375 35.421,5.51259375 35.246625,5.33821875 Z" id="Path" fill="#39516B"></path>
                <path d="M42.6503438,34.0213125 C42.4742718,33.8459765 42.2361075,33.7472271 41.987625,33.7465312 C41.7410625,33.7465312 41.4991875,33.8468437 41.3249063,34.0213125 C41.1496016,34.1973594 41.0508839,34.4354947 41.0502188,34.6839375 C41.0502188,34.9305 41.1505313,35.172375 41.3249063,35.3466562 C41.4992813,35.5210312 41.7411563,35.6213437 41.987625,35.6213437 C42.235125,35.6213437 42.4760625,35.5210312 42.6503438,35.3466562 C42.8256563,35.1722812 42.9250313,34.9304062 42.9250313,34.6839375 C42.9250313,34.4374687 42.8256563,34.1955 42.6503438,34.0213125 Z" id="Path" fill="#39516B"></path>
            </g>
        </g>
    </g>
</svg>