<?xml version="1.0" encoding="UTF-8"?>
<svg width="52px" height="57px" viewBox="0 0 52 57" version="1.1" xmlns="http://www.w3.org/2000/svg" xmlns:xlink="http://www.w3.org/1999/xlink">
    <!-- Generator: Sketch 52.4 (67378) - http://www.bohemiancoding.com/sketch -->
    <title>analytics</title>
    <desc>Created with Sketch.</desc>
    <g id="Welcome" stroke="none" stroke-width="1" fill="none" fill-rule="evenodd">
        <g id="Desktop-HD" transform="translate(-986.000000, -640.000000)">
            <g id="analytics" transform="translate(986.000000, 640.000000)">
                <circle id="Oval" fill="#70FFE9" cx="26" cy="26" r="26"></circle>
                <path d="M37.9793264,39.9411562 L30.4698756,39.9411562 C30.0834819,39.9411562 29.7703938,40.2559687 29.7703938,40.6442812 C29.7703938,41.0325937 30.0834819,41.3474062 30.4698756,41.3474062 L37.9793264,41.3474062 C38.3657202,41.3474062 38.6788083,41.0325937 38.6788083,40.6442812 C38.6788083,40.2559687 38.3657202,39.9411562 37.9793264,39.9411562 Z" id="Path" fill="#39516B"></path>
                <path d="M37.8163005,47.9245312 L37.8163005,48.8345625 C37.8163005,49.222875 38.1293886,49.5376875 38.5157824,49.5376875 C38.9021762,49.5376875 39.2152642,49.222875 39.2152642,48.8345625 L39.2152642,47.9245312 C39.2152642,47.5362187 38.9021762,47.2214062 38.5157824,47.2214062 C38.1294819,47.2214062 37.8163005,47.5362187 37.8163005,47.9245312 Z" id="Path" fill="#39516B"></path>
                <path d="M36.7278135,53.1778125 C37.1142073,53.1778125 37.4272953,52.863 37.4272953,52.4746875 L37.4272953,51.5646562 C37.4272953,51.1763437 37.1142073,50.8615312 36.7278135,50.8615312 C36.3414197,50.8615312 36.0283316,51.1763437 36.0283316,51.5646562 L36.0283316,52.4746875 C36.0283316,52.8630937 36.341513,53.1778125 36.7278135,53.1778125 Z" id="Path" fill="#39516B"></path>
                <path d="M13.841886,26.778 C14.2282798,26.778 14.5413679,26.4631875 14.5413679,26.074875 C14.5413679,25.6865625 14.2282798,25.37175 13.841886,25.37175 L12.0539171,25.37175 C11.6675233,25.37175 11.3544352,25.6865625 11.3544352,26.074875 C11.3544352,26.4631875 11.6675233,26.778 12.0539171,26.778 L13.841886,26.778 Z" id="Path" fill="#39516B"></path>
                <path d="M42.3598549,9 L14.7073782,9 C14.3206114,9 13.9627565,9.1948125 13.750114,9.520875 L8.23558549,17.9740313 C8.11201036,18.1636875 8.04663212,18.384 8.04663212,18.6110625 L8.04663212,46.1955 C8.04663212,46.5838125 8.35972021,46.898625 8.74611399,46.898625 C9.13250777,46.898625 9.44559585,46.5838125 9.44559585,46.1955 L9.44559585,19.1768438 L13.573658,19.1768438 C14.4523005,19.1768438 15.1670777,18.4531875 15.1670777,17.5636875 L15.1670777,10.40625 L42.3598549,10.40625 C42.4671088,10.40625 42.5544041,10.4990625 42.5544041,10.6131562 L42.5544041,15.1936875 C42.5544041,15.582 42.8674922,15.8968125 43.253886,15.8968125 C43.6402798,15.8968125 43.9533679,15.582 43.9533679,15.1936875 L43.9533679,10.6131562 C43.9533679,9.72365625 43.2384974,9 42.3598549,9 Z M13.768114,17.5636875 C13.768114,17.6777812 13.6808187,17.7705937 13.573658,17.7705937 L10.0412746,17.7705937 L13.768114,12.05775 L13.768114,17.5636875 Z" id="Shape" fill="#39516B" fill-rule="nonzero"></path>
                <path d="M37.2038342,48.8345625 L37.2038342,47.9245312 C37.2038342,47.5362187 36.8907461,47.2214062 36.5043523,47.2214062 C36.1179585,47.2214062 35.8048705,47.5362187 35.8048705,47.9245312 L35.8048705,48.8345625 C35.8048705,49.222875 36.1179585,49.5376875 36.5043523,49.5376875 C36.8907461,49.5376875 37.2038342,49.222875 37.2038342,48.8345625 Z" id="Path" fill="#39516B"></path>
                <path d="M43.253886,17.16 C42.8674922,17.16 42.5544041,17.4748125 42.5544041,17.863125 L42.5544041,55.3868437 C42.5544041,55.5009375 42.4671088,55.59375 42.3598549,55.59375 L9.64014508,55.59375 C9.53289119,55.59375 9.44559585,55.5009375 9.44559585,55.3868437 L9.44559585,48.9255937 C9.44559585,48.5372812 9.13250777,48.2224687 8.74611399,48.2224687 C8.35972021,48.2224687 8.04663212,48.5372812 8.04663212,48.9255937 L8.04663212,55.3868437 C8.04663212,56.2763437 8.76150259,57 9.64014508,57 L42.3598549,57 C43.2384974,57 43.9533679,56.2763437 43.9533679,55.3868437 L43.9533679,17.863125 C43.9533679,17.4748125 43.6402798,17.16 43.253886,17.16 Z" id="Path" fill="#39516B"></path>
                <path d="M12.0539171,53.1778125 L25.6425181,53.1778125 C26.0289119,53.1778125 26.342,52.863 26.342,52.4746875 C26.342,52.086375 26.0289119,51.7715625 25.6425181,51.7715625 L24.9116062,51.7715625 L24.9116062,44.2844062 C24.9116062,43.3949062 24.1967358,42.67125 23.3180933,42.67125 L21.5301244,42.67125 C21.4643731,42.67125 21.3994611,42.6752812 21.3356684,42.6831562 L21.3356684,39.7341562 C21.3356684,38.8446562 20.6207979,38.121 19.7421554,38.121 L17.9541865,38.121 C17.075544,38.121 16.3607668,38.8446562 16.3607668,39.7341562 L16.3607668,45.41325 C16.2969741,45.405375 16.2320622,45.4013437 16.1662176,45.4013437 L14.3782487,45.4013437 C13.4996062,45.4013437 12.7847358,46.125 12.7847358,47.0145 L12.7847358,51.7715625 L12.0539171,51.7715625 C11.6675233,51.7715625 11.3544352,52.086375 11.3544352,52.4746875 C11.3544352,52.8630937 11.6675233,53.1778125 12.0539171,53.1778125 Z M21.3355751,44.2844062 C21.3355751,44.1703125 21.4228705,44.0775 21.5300311,44.0775 L23.318,44.0775 C23.4252539,44.0775 23.5125492,44.1703125 23.5125492,44.2844062 L23.5125492,51.7715625 L21.3355751,51.7715625 L21.3355751,44.2844062 Z M17.7596373,39.73425 C17.7596373,39.6201562 17.8469326,39.5273437 17.9540933,39.5273437 L19.7421554,39.5273437 C19.8494093,39.5273437 19.9367047,39.6201562 19.9367047,39.73425 L19.9367047,51.7715625 L17.7597306,51.7715625 L17.7596373,51.7715625 L17.7596373,39.73425 Z M14.1836995,47.0145 C14.1836995,46.9004062 14.2709948,46.8075937 14.3782487,46.8075937 L16.1662176,46.8075937 C16.2734715,46.8075937 16.3607668,46.9004062 16.3607668,47.0145 L16.3607668,51.7715625 L14.1836995,51.7715625 L14.1836995,47.0145 Z" id="Shape" fill="#39516B" fill-rule="nonzero"></path>
                <path d="M26.382943,15.3691875 C26.1925907,15.3623438 26.0087668,15.4332188 25.8720415,15.5657813 C25.7353161,15.69825 25.6580933,15.8809688 25.6580933,16.0718438 L25.6580933,16.2775313 C20.5008601,16.461375 16.3607668,20.7856875 16.3607668,26.074875 C16.3607668,31.4805 20.6848705,35.8783125 26,35.8783125 C31.0796373,35.8783125 35.2541451,31.8612188 35.6141451,26.7868125 L35.8336891,26.7868125 C36.2200829,26.7868125 36.533171,26.4786563 36.533171,26.09025 C36.533171,26.0865938 36.5332642,26.0785313 36.5332642,26.074875 C36.5332642,23.2827188 35.4830155,20.6395313 33.5760415,18.6321563 C31.6716788,16.6275 29.117171,15.46875 26.382943,15.3691875 Z M26,22.2278438 C28.0790466,22.2278438 29.770487,23.9535938 29.770487,26.074875 C29.770487,28.1961563 28.0790466,29.9219063 26,29.9219063 C23.9209534,29.9219063 22.229513,28.1961563 22.229513,26.074875 C22.229513,23.9535938 23.9209534,22.2278438 26,22.2278438 Z M17.7598238,26.074875 C17.7598238,21.561375 21.2724352,17.8681875 25.6581865,17.6848125 L25.6581865,20.8329375 C22.9663938,21.012375 20.8306425,23.2949063 20.8306425,26.074875 C20.8306425,27.270375 21.2257098,28.3740938 21.8901244,29.2579688 L19.7024249,31.4848125 C18.4909223,30.0225938 17.7597306,28.134 17.7598238,26.074875 Z M26,34.4721563 C23.9760725,34.4721563 22.1203005,33.724875 20.6844041,32.486625 L22.8748083,30.2569688 C23.7433782,30.928875 24.8267358,31.32825 26,31.32825 C28.6127979,31.32825 30.7790466,29.3479688 31.1221658,26.7869063 L34.2109845,26.7869063 C33.8553679,31.0853438 30.3085285,34.4721563 26,34.4721563 Z M35.0510155,25.3806563 C34.978456,25.3690313 34.9010466,25.3690313 34.8285803,25.3806563 L31.1244041,25.3806563 C30.8355648,23.166375 29.1839482,21.3829688 27.057057,20.9320313 L27.057057,16.8295313 C31.419399,17.3352188 34.793513,20.916375 35.1101451,25.3806563 L35.0510155,25.3806563 Z" id="Shape" fill="#39516B" fill-rule="nonzero"></path>
                <path d="M37.0853886,14.4601875 L35.2974197,14.4601875 C34.9110259,14.4601875 34.5979378,14.775 34.5979378,15.1633125 C34.5979378,15.551625 34.9110259,15.8664375 35.2974197,15.8664375 L37.0853886,15.8664375 C37.4717824,15.8664375 37.7848705,15.551625 37.7848705,15.1633125 C37.7848705,14.775 37.4717824,14.4601875 37.0853886,14.4601875 Z" id="Path" fill="#39516B"></path>
                <path d="M37.0853886,35.8872187 C37.4717824,35.8872187 37.7848705,35.5724062 37.7848705,35.1840937 C37.7848705,34.7957812 37.4717824,34.4809687 37.0853886,34.4809687 L35.2974197,34.4809687 C34.9110259,34.4809687 34.5979378,34.7957812 34.5979378,35.1840937 C34.5979378,35.5724062 34.9110259,35.8872187 35.2974197,35.8872187 L37.0853886,35.8872187 Z" id="Path" fill="#39516B"></path>
                <path d="M34.4929223,49.5376875 C34.8793161,49.5376875 35.1924041,49.222875 35.1924041,48.8345625 L35.1924041,47.9245312 C35.1924041,47.5362187 34.8793161,47.2214062 34.4929223,47.2214062 C34.1065285,47.2214062 33.7934404,47.5362187 33.7934404,47.9245312 L33.7934404,48.8345625 C33.7934404,49.222875 34.1065285,49.5376875 34.4929223,49.5376875 Z" id="Path" fill="#39516B"></path>
                <path d="M34.6418653,53.1778125 C35.0282591,53.1778125 35.3413472,52.863 35.3413472,52.4746875 L35.3413472,51.5646562 C35.3413472,51.1763437 35.0282591,50.8615312 34.6418653,50.8615312 C34.2554715,50.8615312 33.9423834,51.1763437 33.9423834,51.5646562 L33.9423834,52.4746875 C33.9423834,52.8630937 34.2555648,53.1778125 34.6418653,53.1778125 Z" id="Path" fill="#39516B"></path>
                <path d="M25.1059689,26.778 L26.8940311,26.778 C27.2804249,26.778 27.593513,26.4631875 27.593513,26.074875 C27.593513,25.6865625 27.2804249,25.37175 26.8940311,25.37175 L25.1059689,25.37175 C24.7195751,25.37175 24.406487,25.6865625 24.406487,26.074875 C24.406487,26.4631875 24.7195751,26.778 25.1059689,26.778 Z" id="Path" fill="#39516B"></path>
                <path d="M32.481399,49.5376875 C32.8677927,49.5376875 33.1808808,49.222875 33.1808808,48.8345625 L33.1808808,47.9245312 C33.1808808,47.5362187 32.8677927,47.2214062 32.481399,47.2214062 C32.0950052,47.2214062 31.7819171,47.5362187 31.7819171,47.9245312 L31.7819171,48.8345625 C31.7819171,49.222875 32.0950984,49.5376875 32.481399,49.5376875 Z" id="Path" fill="#39516B"></path>
                <path d="M35.1029637,43.374375 C35.1029637,42.9860625 34.7898756,42.67125 34.4034819,42.67125 L30.4699689,42.67125 C30.0835751,42.67125 29.770487,42.9860625 29.770487,43.374375 C29.770487,43.7626875 30.0835751,44.0775 30.4699689,44.0775 L34.4034819,44.0775 C34.7897824,44.0775 35.1029637,43.7626875 35.1029637,43.374375 Z" id="Path" fill="#39516B"></path>
                <path d="M30.4699689,50.8615312 C30.0835751,50.8615312 29.770487,51.1763437 29.770487,51.5646562 L29.770487,52.4746875 C29.770487,52.863 30.0835751,53.1778125 30.4699689,53.1778125 C30.8563627,53.1778125 31.1694508,52.863 31.1694508,52.4746875 L31.1694508,51.5646562 C31.1694508,51.1763437 30.8562694,50.8615312 30.4699689,50.8615312 Z" id="Path" fill="#39516B"></path>
                <path d="M32.5559171,53.1778125 C32.9423109,53.1778125 33.255399,52.863 33.255399,52.4746875 L33.255399,51.5646562 C33.255399,51.1763437 32.9423109,50.8615312 32.5559171,50.8615312 C32.1695233,50.8615312 31.8564352,51.1763437 31.8564352,51.5646562 L31.8564352,52.4746875 C31.8564352,52.8630937 32.1695233,53.1778125 32.5559171,53.1778125 Z" id="Path" fill="#39516B"></path>
                <path d="M31.1694508,47.9245312 C31.1694508,47.5362187 30.8563627,47.2214062 30.4699689,47.2214062 C30.0835751,47.2214062 29.770487,47.5362187 29.770487,47.9245312 L29.770487,48.8345625 C29.770487,49.222875 30.0835751,49.5376875 30.4699689,49.5376875 C30.8563627,49.5376875 31.1694508,49.222875 31.1694508,48.8345625 L31.1694508,47.9245312 Z" id="Path" fill="#39516B"></path>
            </g>
        </g>
    </g>
</svg>