<?xml version="1.0" encoding="UTF-8"?>
<svg width="49px" height="57px" viewBox="0 0 49 57" version="1.1" xmlns="http://www.w3.org/2000/svg" xmlns:xlink="http://www.w3.org/1999/xlink">
    <!-- Generator: Sketch 52.4 (67378) - http://www.bohemiancoding.com/sketch -->
    <title>026-social-media</title>
    <desc>Created with Sketch.</desc>
    <g id="Welcome" stroke="none" stroke-width="1" fill="none" fill-rule="evenodd">
        <g id="Desktop-HD" transform="translate(-794.000000, -448.000000)">
            <g id="026-social-media" transform="translate(794.000000, 448.000000)">
                <polygon id="Rectangle" fill="#70FFE9" transform="translate(32.627417, 23.000000) rotate(-315.000000) translate(-32.627417, -23.000000) " points="16.627417 7 48.627417 16.1211523 25.7485693 39"></polygon>
                <path d="M21.8078129,18.3501754 C21.6319429,18.1753473 21.3942731,18.0768505 21.1462924,18.0760234 C20.9002105,18.0760234 20.658807,18.1761404 20.4847719,18.3501754 C20.3107368,18.5242105 20.2106199,18.765614 20.2106199,19.0116959 C20.2106199,19.2577778 20.3107368,19.4991813 20.4847719,19.6732164 C20.658807,19.8472515 20.9002105,19.9473684 21.1462924,19.9473684 C21.3923743,19.9473684 21.6337778,19.8472515 21.8078129,19.6732164 C21.981848,19.4991813 22.0819649,19.2577778 22.0819649,19.0116959 C22.0819649,18.765614 21.981848,18.5242105 21.8078129,18.3501754 Z" id="Path" fill="#39516B"></path>
                <path d="M21.1462924,15.9239766 C21.6630643,15.9239766 22.0819649,15.505076 22.0819649,14.9883041 L22.0819649,12.7894737 C22.0819649,10.6999298 20.3820351,9 18.2924912,9 L3.78956725,9 C1.70002339,9 9.35672515e-05,10.6999298 9.35672515e-05,12.7894737 L9.35672515e-05,24.5789474 C9.35672515e-05,26.6684912 1.70002339,28.3684211 3.78956725,28.3684211 L7.94488889,28.3684211 L10.3156959,31.3799766 C10.493136,31.6053272 10.7641236,31.7368551 11.0509474,31.7368421 L11.0526316,31.7368421 C11.3400531,31.7363299 11.6112921,31.6037465 11.7882573,31.3772632 L14.1392281,28.3684211 L18.2924912,28.3684211 C20.3820351,28.3684211 22.0819649,26.6684912 22.0819649,24.5789474 L22.0819649,22.4814503 C22.0819649,21.9646784 21.6630643,21.5457778 21.1462924,21.5457778 C20.6295205,21.5457778 20.2106199,21.9646784 20.2106199,22.4814503 L20.2106199,24.5789474 C20.2106199,25.6366316 19.3501754,26.497076 18.2924912,26.497076 L13.6829006,26.497076 C13.3948876,26.4970705 13.1229202,26.6297063 12.9455906,26.856655 L11.0481404,29.2850994 L9.13422222,26.8540351 C8.9568293,26.6286769 8.68586485,26.4971435 8.39906433,26.4971696 L3.78947368,26.4971696 C2.73178947,26.4971696 1.87134503,25.6367251 1.87134503,24.5790409 L1.87134503,12.7895673 C1.87134503,11.731883 2.73178947,10.8714386 3.78947368,10.8714386 L18.2923977,10.8714386 C19.3500819,10.8714386 20.2105263,11.731883 20.2105263,12.7895673 L20.2105263,14.9883041 C20.2106199,15.505076 20.6295205,15.9239766 21.1462924,15.9239766 Z" id="Path" fill="#39516B"></path>
                <path d="M39.7163977,45.4478129 C39.7163977,44.1341287 38.8787836,43.0126316 37.7096608,42.5886784 C37.9187785,42.1692739 38.0274369,41.706963 38.0270409,41.2383158 C38.0270409,39.5618713 36.6632047,38.1980351 34.9867602,38.1980351 L28.8753216,38.1980351 L29.6930994,35.7702456 C30.0993684,34.563883 30.0023392,33.2763977 29.4197895,32.1446082 C28.8371462,31.0129123 27.8457076,30.1856842 26.6278363,29.8154386 L25.4888421,29.4691462 C25.0125027,29.3242832 24.5061449,29.5778116 24.3367485,30.0459883 L22.5469942,34.9926082 C22.0637221,36.329565 21.1072653,37.4430733 19.8585263,38.1225263 L18.7059649,38.7500819 C18.5594386,38.4248421 18.233076,38.1980351 17.853193,38.1980351 L9.12617544,38.1980351 C8.60940351,38.1980351 8.19050292,38.6170292 8.19050292,39.1337076 L8.19050292,55.9707602 C8.19050292,56.4874386 8.60940351,56.9064327 9.12617544,56.9064327 L17.8532865,56.9064327 C18.3405848,56.9064327 18.7404912,56.533848 18.7845614,56.0580585 L19.1407719,56.1977544 C20.3347757,56.6670688 21.6064303,56.9075096 22.8893567,56.9065263 L33.5190643,56.9065263 C35.1955088,56.9065263 36.559345,55.5426901 36.559345,53.8662456 C36.5596938,53.3912483 36.4480076,52.9228651 36.2333567,52.4991345 C37.3789942,52.0630175 38.1953684,50.9538713 38.1953684,49.6570292 C38.19573,49.1676665 38.0772132,48.6855399 37.8500117,48.252117 C38.9452164,47.7919532 39.7163977,46.7083509 39.7163977,45.4478129 Z M16.917614,55.0350877 L10.061848,55.0350877 L10.061848,40.0694737 L12.9390409,40.0694737 L12.9390409,49.6210994 C12.9390409,50.1377778 13.3579415,50.5567719 13.8747135,50.5567719 C14.3914854,50.5567719 14.810386,50.1377778 14.810386,49.6210994 L14.810386,40.0694737 L16.917614,40.0694737 L16.917614,55.0350877 Z M36.6758363,46.6165614 L30.7127953,46.6165614 C30.1960234,46.6165614 29.7771228,47.0355556 29.7771228,47.5522339 C29.7771228,48.0689123 30.1960234,48.4879064 30.7127953,48.4879064 L35.1550877,48.4879064 C35.7996725,48.4879064 36.3240234,49.0122573 36.3240234,49.6568421 C36.3240234,50.3014269 35.7996725,50.8260585 35.1550877,50.8260585 L30.7127953,50.8260585 C30.1960234,50.8260585 29.7771228,51.2450526 29.7771228,51.761731 C29.7771228,52.2784094 30.1960234,52.6974035 30.7127953,52.6974035 L33.5190643,52.6974035 C34.1636491,52.6974035 34.688,53.2217544 34.688,53.8663392 C34.688,54.510924 34.1636491,55.0352749 33.5190643,55.0352749 L22.8893567,55.0352749 C21.8402616,55.0360982 20.800381,54.8394919 19.824,54.4557193 L18.7888655,54.049731 L18.7888655,40.8356959 L20.7534035,39.7659415 C22.4037951,38.8679148 23.6678931,37.3962351 24.3066199,35.6292398 L25.794152,31.5178947 L26.0833684,31.6057544 C26.8128187,31.8276023 27.4068772,32.3231345 27.7557895,33.0010292 C28.1047953,33.6790175 28.1629006,34.4502924 27.9195322,35.1727251 L26.6860351,38.8349474 C26.5898649,39.1204715 26.6370672,39.4348359 26.81285,39.6795258 C26.9886328,39.9242158 27.2714867,40.0692904 27.5727719,40.0692865 L34.9866667,40.0692865 C35.6312515,40.0692865 36.1556023,40.5936374 36.1556023,41.2382222 C36.1556023,41.882807 35.6312515,42.4071579 34.9866667,42.4071579 L30.7127018,42.4071579 C30.1959298,42.4071579 29.7770292,42.826152 29.7770292,43.3428304 C29.7770292,43.8595088 30.1959298,44.2785029 30.7127018,44.2785029 L36.6758363,44.2786901 C37.3204211,44.2786901 37.8448655,44.8030409 37.8448655,45.4476257 C37.8447719,46.0922105 37.3204211,46.6165614 36.6758363,46.6165614 Z" id="Shape" fill="#39516B" fill-rule="nonzero"></path>
                <path d="M13.8746199,51.518269 C13.357848,51.518269 12.9389474,51.9372632 12.9389474,52.4539415 L12.9389474,52.4662924 C12.9389474,52.9829708 13.357848,53.4019649 13.8746199,53.4019649 C14.3913918,53.4019649 14.8102924,52.9829708 14.8102924,52.4662924 L14.8102924,52.4539415 C14.8102924,51.9372632 14.3912982,51.518269 13.8746199,51.518269 Z" id="Path" fill="#39516B"></path>
                <path d="M13.2787836,15.9239766 L13.5828772,15.9239766 C14.0996491,15.9239766 14.5185497,15.505076 14.5185497,14.9883041 C14.5185497,14.4715322 14.0996491,14.0526316 13.5828772,14.0526316 L13.2787836,14.0526316 C11.6407018,14.0526316 10.3080234,15.3853099 10.3080234,17.0233918 L10.3080234,17.7985029 C9.82053801,17.8307836 9.43476023,18.2352749 9.43476023,18.7309942 C9.43476023,19.2267135 9.82053801,19.6312982 10.3080234,19.6634854 L10.3080234,22.4814503 C10.3080234,22.9982222 10.726924,23.4171228 11.2436959,23.4171228 C11.7604678,23.4171228 12.1793684,22.9982222 12.1793684,22.4814503 L12.1793684,19.6666667 L13.3021754,19.6666667 C13.8189474,19.6666667 14.237848,19.2477661 14.237848,18.7309942 C14.237848,18.2142222 13.8189474,17.7953216 13.3021754,17.7953216 L12.1793684,17.7953216 L12.1793684,17.0233918 C12.1793684,16.4171696 12.6725614,15.9239766 13.2787836,15.9239766 Z" id="Path" fill="#39516B"></path>
                <path d="M31,17.9 C31,17.4029437 31.4477153,17 32,17 C32.5522847,17 33,17.4029437 33,17.9 L33,25.1 C33,25.5970563 32.5522847,26 32,26 C31.4477153,26 31,25.5970563 31,25.1 L31,17.9 Z" id="Line" fill="#39516B" fill-rule="nonzero"></path>
                <path d="M28.241941,17.6501936 C27.8716533,18.0599563 27.2392975,18.0919572 26.8295348,17.7216695 C26.4197721,17.3513818 26.3877713,16.719026 26.758059,16.3092633 L31.258059,11.3295348 C31.6551106,10.8901551 32.3448894,10.8901551 32.741941,11.3295348 L37.241941,16.3092633 C37.6122287,16.719026 37.5802279,17.3513818 37.1704652,17.7216695 C36.7607025,18.0919572 36.1283467,18.0599563 35.758059,17.6501936 L32,13.4915018 L28.241941,17.6501936 Z" id="Path-2" fill="#39516B" fill-rule="nonzero"></path>
            </g>
        </g>
    </g>
</svg>