<?xml version="1.0" encoding="UTF-8"?>
<svg width="48px" height="47px" viewBox="0 0 48 47" version="1.1" xmlns="http://www.w3.org/2000/svg" xmlns:xlink="http://www.w3.org/1999/xlink">
    <!-- Generator: Sketch 52.4 (67378) - http://www.bohemiancoding.com/sketch -->
    <title>Group 31</title>
    <desc>Created with Sketch.</desc>
    <g id="Welcome" stroke="none" stroke-width="1" fill="none" fill-rule="evenodd">
        <g id="Desktop-HD" transform="translate(-794.000000, -266.000000)">
            <g id="Group-31" transform="translate(794.000000, 266.000000)">
                <rect id="Rectangle" fill="#70FFE9" x="7" y="8" width="34" height="33"></rect>
                <g id="045-communication" fill="#39516B">
                    <path d="M27.6972164,0.077268 L2.80711111,0.077268 C1.25932164,0.077268 0,1.34232 0,2.897362 L0,20.194208 C0,21.74925 1.25932164,23.014302 2.80711111,23.014302 L11.1216842,23.014302 L14.5905029,26.499164 C14.7732398,26.682746 15.0125848,26.77449 15.252117,26.77449 C15.4916491,26.77449 15.7309942,26.682746 15.9138246,26.499164 L19.3826433,23.014302 L27.6971228,23.014302 C29.2450058,23.014302 30.5042339,21.749156 30.5042339,20.194208 L30.5042339,2.897362 C30.5043275,1.34232 29.2450994,0.077268 27.6972164,0.077268 Z M28.6328889,20.194208 C28.6328889,20.712524 28.2131462,21.134208 27.6972164,21.134208 L18.9950877,21.134208 C18.7469394,21.1342423 18.5089612,21.2332753 18.3334737,21.409534 L15.2522105,24.505048 L12.1709474,21.409534 C11.9954599,21.2332753 11.7574817,21.1342423 11.5093333,21.134208 L2.80711111,21.134208 C2.29118129,21.134208 1.8714386,20.712524 1.8714386,20.194208 L1.8714386,2.897362 C1.8714386,2.379046 2.29118129,1.957362 2.80711111,1.957362 L27.6971228,1.957362 C28.2130526,1.957362 28.6327953,2.379046 28.6327953,2.897362 L28.6327953,20.194208 L28.6328889,20.194208 Z" id="Shape" fill-rule="nonzero"></path>
                    <path d="M34.7192515,20.500648 C34.5453099,20.325808 34.3039064,20.225228 34.0578246,20.225228 C33.8117427,20.225228 33.5704327,20.325808 33.3963041,20.500648 C33.2221754,20.675488 33.122152,20.918008 33.122152,21.165228 C33.122152,21.413388 33.222269,21.654968 33.3963041,21.829808 C33.5703392,22.005588 33.8117427,22.105228 34.0578246,22.105228 C34.3038129,22.105228 34.5453099,22.005588 34.7192515,21.829808 C34.8942942,21.6532607 34.9928576,21.4144119 34.9934971,21.165228 C34.9925039,20.9161155 34.893994,20.6773963 34.7192515,20.500648 Z" id="Path"></path>
                    <path d="M45.0994152,20.22551 L37.6604444,20.22551 C37.1437661,20.22551 36.7247719,20.646348 36.7247719,21.16551 C36.7247719,21.684672 37.1437661,22.10551 37.6604444,22.10551 L45.0994152,22.10551 C45.615345,22.10551 46.0350877,22.527194 46.0350877,23.04551 L46.0350877,40.342356 C46.0350877,40.860672 45.615345,41.282356 45.0994152,41.282356 L36.3972865,41.282356 C36.1491382,41.2823903 35.91116,41.3814233 35.7356725,41.557682 L32.6544094,44.653196 L29.5731462,41.557682 C29.3976587,41.3814233 29.1596805,41.2823903 28.9115322,41.282356 L20.2094035,41.282356 C19.6934737,41.282356 19.273731,40.860672 19.273731,40.342356 L19.273731,29.500584 C19.273731,28.981422 18.8547368,28.560584 18.3380585,28.560584 C17.8213801,28.560584 17.402386,28.981422 17.402386,29.500584 L17.402386,40.34245 C17.402386,41.897492 18.6617076,43.162544 20.2094971,43.162544 L28.5239766,43.162544 L31.9927953,46.647406 C32.1680665,46.8239897 32.4061852,46.9230811 32.6544094,46.922732 C32.9026892,46.9229919 33.1408444,46.8238795 33.3162105,46.647312 L36.7850292,43.16245 L45.0994152,43.16245 C46.6472982,43.16245 47.9065263,41.897304 47.9065263,40.342356 L47.9065263,23.045604 C47.9065263,21.490656 46.6472047,20.22551 45.0994152,20.22551 Z" id="Path"></path>
                    <path d="M7.25183626,8.819644 C5.75560234,8.819644 4.5382924,10.042584 4.5382924,11.545738 C4.5382924,13.048892 5.75569591,14.271832 7.25183626,14.271832 C8.74807018,14.271832 9.96538012,13.048892 9.96538012,11.545738 C9.96538012,10.042584 8.74797661,8.819644 7.25183626,8.819644 Z M7.25183626,12.391832 C6.78746199,12.391832 6.40973099,12.01226 6.40973099,11.545832 C6.40973099,11.079404 6.78746199,10.699832 7.25183626,10.699832 C7.71621053,10.699832 8.09394152,11.079404 8.09394152,11.545832 C8.09394152,12.01226 7.71621053,12.391832 7.25183626,12.391832 Z" id="Shape" fill-rule="nonzero"></path>
                    <path d="M15.2522105,8.819644 C13.7559766,8.819644 12.5386667,10.042584 12.5386667,11.545738 C12.5386667,13.048892 13.7560702,14.271832 15.2522105,14.271832 C16.7484444,14.271832 17.9657544,13.048892 17.9657544,11.545738 C17.9657544,10.042584 16.7483509,8.819644 15.2522105,8.819644 Z M15.2522105,12.391832 C14.7878363,12.391832 14.4101053,12.01226 14.4101053,11.545832 C14.4101053,11.079404 14.7878363,10.699832 15.2522105,10.699832 C15.7165848,10.699832 16.0943158,11.079404 16.0943158,11.545832 C16.0943158,12.01226 15.7165848,12.391832 15.2522105,12.391832 Z" id="Shape" fill-rule="nonzero"></path>
                    <path d="M23.2525848,8.819644 C21.7563509,8.819644 20.5390409,10.042584 20.5390409,11.545738 C20.5390409,13.048892 21.7564444,14.271832 23.2525848,14.271832 C24.7488187,14.271832 25.9661287,13.048892 25.9661287,11.545738 C25.9661287,10.042584 24.7487251,8.819644 23.2525848,8.819644 Z M23.2525848,12.391832 C22.7882105,12.391832 22.4104795,12.01226 22.4104795,11.545832 C22.4104795,11.079404 22.7882105,10.699832 23.2525848,10.699832 C23.7169591,10.699832 24.0946901,11.079404 24.0946901,11.545832 C24.0946901,12.01226 23.7169591,12.391832 23.2525848,12.391832 Z" id="Shape" fill-rule="nonzero"></path>
                    <path d="M38.1018947,30.222034 L32.6294269,26.698162 C31.902568,26.2299353 30.9792711,26.1976369 30.2217544,26.613938 C29.4640422,27.0299808 28.9928114,27.828358 28.9929357,28.69585 L28.9929357,35.743688 C28.9927708,36.6111912 29.4640129,37.4095877 30.2217544,37.8256 C30.9792708,38.2421289 31.9027488,38.2097534 32.6295205,37.741188 L38.1019883,34.217316 C38.7809436,33.7823283 39.1911893,33.0286181 39.1893333,32.219628 C39.1911017,31.410662 38.7808311,30.6570064 38.1018947,30.222034 Z M37.0920234,32.634638 L31.6195556,36.15851 C31.3984561,36.300732 31.1962573,36.218106 31.1195322,36.175994 C31.042807,36.133882 30.8643743,36.007358 30.8643743,35.743688 L30.8643743,28.69585 C30.8643743,28.43218 31.0429006,28.305656 31.1195322,28.263544 C31.1928976,28.2233024 31.2750114,28.2018638 31.3585965,28.201128 C31.4370058,28.201128 31.5266433,28.221244 31.6195556,28.281028 L37.0920234,31.8049 C37.2958129,31.936124 37.3178012,32.138694 37.3178012,32.219722 C37.3178012,32.300844 37.2958129,32.503414 37.0920234,32.634638 Z" id="Shape" fill-rule="nonzero"></path>
                    <path d="M6.64776608,25.98489 C6.47382456,25.80911 6.23242105,25.70947 5.98633918,25.70947 C5.74025731,25.70947 5.4988538,25.80911 5.32481871,25.98489 C5.14980162,26.1614469 5.05127113,26.4002975 5.05066667,26.64947 C5.05066667,26.89669 5.15078363,27.13921 5.32481871,27.31405 C5.4988538,27.48889 5.74025731,27.58947 5.98633918,27.58947 C6.23232749,27.58947 6.47382456,27.48889 6.64776608,27.31405 C6.82189474,27.13827 6.9220117,26.89669 6.9220117,26.64947 C6.9220117,26.40225 6.82180117,26.15973 6.64776608,25.98489 Z" id="Path"></path>
                    <path d="M44.1635556,5.153456 L39.6721404,5.153456 C39.155462,5.153456 38.7364678,5.574294 38.7364678,6.093456 L38.7364678,7.40955 L34.0912281,7.40955 C33.5745497,7.40955 33.1555556,7.830388 33.1555556,8.34955 C33.1555556,8.868712 33.5745497,9.28955 34.0912281,9.28955 L38.7364678,9.28955 L38.7364678,10.605644 C38.7364678,11.124806 39.155462,11.545644 39.6721404,11.545644 L40.9821754,11.545644 L40.9821754,16.715926 C40.9821754,17.235088 41.4011696,17.655926 41.917848,17.655926 C42.4345263,17.655926 42.8535205,17.235088 42.8535205,16.715926 L42.8535205,11.545644 L44.1635556,11.545644 C44.6802339,11.545644 45.0992281,11.124806 45.0992281,10.605644 L45.0992281,6.09355 C45.0993216,5.574388 44.6802339,5.153456 44.1635556,5.153456 Z M43.227883,9.665738 L40.6079064,9.665738 L40.6079064,7.03355 L43.227883,7.03355 L43.227883,9.665738 Z" id="Shape" fill-rule="nonzero"></path>
                    <path d="M14.1270643,38.995054 L9.16781287,38.995054 L9.16781287,37.67896 C9.16781287,37.159798 8.74881871,36.73896 8.23214035,36.73896 L6.9220117,36.73896 L6.9220117,30.00198 C6.9220117,29.482818 6.50301754,29.06198 5.98633918,29.06198 C5.46966082,29.06198 5.05066667,29.482818 5.05066667,30.00198 L5.05066667,36.73896 L3.74063158,36.73896 C3.22395322,36.73896 2.80495906,37.159798 2.80495906,37.67896 L2.80495906,42.191148 C2.80495906,42.71031 3.22395322,43.131148 3.74063158,43.131148 L8.23204678,43.131148 C8.74872515,43.131148 9.1677193,42.71031 9.1677193,42.191148 L9.1677193,40.875054 L14.1270643,40.875054 C14.6437427,40.875054 15.0627368,40.454216 15.0627368,39.935054 C15.0627368,39.415892 14.6437427,38.995054 14.1270643,38.995054 Z M7.29637427,41.251148 L4.67630409,41.251148 L4.67630409,38.619054 L7.29637427,38.619054 L7.29637427,41.251148 Z" id="Shape" fill-rule="nonzero"></path>
                </g>
            </g>
        </g>
    </g>
</svg>