<?xml version="1.0" encoding="UTF-8"?>
<svg width="48px" height="39px" viewBox="0 0 48 39" version="1.1" xmlns="http://www.w3.org/2000/svg" xmlns:xlink="http://www.w3.org/1999/xlink">
    <!-- Generator: Sketch 52.4 (67378) - http://www.bohemiancoding.com/sketch -->
    <title>Group 27</title>
    <desc>Created with Sketch.</desc>
    <g id="Welcome" stroke="none" stroke-width="1" fill="none" fill-rule="evenodd">
        <g id="Desktop-HD" transform="translate(-994.000000, -370.000000)">
            <g id="Group-27" transform="translate(994.000000, 370.000000)">
                <circle id="Oval" fill="#70FFE9" cx="20" cy="23" r="15"></circle>
                <path d="M44.7414375,7.83377512 L40.3497188,7.83377512 L39.3407813,3.29643301 C38.9099063,1.358189 37.2158438,0.0044784689 35.2212188,0.0044784689 L19.9746563,0.0044784689 C17.9800313,0.0044784689 16.2859688,1.35809569 15.855,3.29633971 L14.8460625,7.83377512 L13.8039375,7.83377512 L13.8039375,5.89777033 C13.8039375,4.80679665 12.912,3.91912679 11.8156875,3.91912679 L5.3870625,3.91912679 C4.29075,3.91912679 3.3988125,4.80679665 3.3988125,5.89777033 L3.3988125,7.83377512 L3.25846875,7.83377512 C1.46175,7.83377512 0,9.2885311 0,11.0767464 L0,33.0405574 C0,34.8287727 1.46175,36.2835287 3.2585625,36.2835287 L6.59109375,36.2835287 L18.3706875,36.2835287 C21.03075,37.9984091 24.1993125,38.9955215 27.5978438,38.9955215 C30.996375,38.9955215 34.1650312,37.9984091 36.825,36.2835287 L44.7414375,36.2835287 C46.53825,36.2835287 48,34.8287727 48,33.0405574 L48,11.0767464 C48,9.2885311 46.53825,7.83377512 44.7414375,7.83377512 Z M17.6855625,3.69949522 C17.9250937,2.62261005 18.8663437,1.87041388 19.9745625,1.87041388 L35.221125,1.87041388 C36.3293438,1.87041388 37.2705938,2.62251675 37.5100313,3.69949522 L38.4293438,7.83377512 L36.825,7.83377512 C34.1649375,6.11889474 30.996375,5.1217823 27.5978438,5.1217823 C24.1993125,5.1217823 21.03075,6.11889474 18.3706875,7.83377512 L16.76625,7.83377512 L17.6855625,3.69949522 Z M5.2738125,5.89777033 C5.2738125,5.83563158 5.324625,5.7851555 5.3870625,5.7851555 L11.8155938,5.7851555 C11.8780312,5.7851555 11.9288438,5.83572488 11.9288438,5.89777033 L11.9288438,7.83377512 L5.2738125,7.83377512 L5.2738125,5.89777033 Z M7.52859375,34.4174067 L7.52859375,24.2832847 C7.52859375,23.7679809 7.108875,23.3502703 6.59109375,23.3502703 C6.0733125,23.3502703 5.65359375,23.7679809 5.65359375,24.2832847 L5.65359375,34.4175 L3.2585625,34.4175 C2.49571875,34.4175 1.875,33.7997512 1.875,33.0405574 L1.875,11.0767464 C1.875,10.3174593 2.49571875,9.69980383 3.2585625,9.69980383 L4.33640625,9.69980383 L12.8663437,9.69980383 L15.5986875,9.69980383 L15.9744375,9.69980383 C12.6565313,12.7923732 10.5795,17.1883636 10.5795,22.0586053 C10.5795,26.9288469 12.6565313,31.3248373 15.9744375,34.4175 L7.52859375,34.4174067 Z M36.2537813,34.4175 C35.1362812,35.1950742 33.909,35.8262584 32.5999688,36.2835287 C31.0332187,36.8308349 29.3500312,37.1294928 27.5978437,37.1294928 C25.8456562,37.1294928 24.162375,36.8307416 22.5957187,36.2835287 C21.2866875,35.8262584 20.0595,35.1950742 18.9419063,34.4175 C15.0230625,31.6907656 12.4545,27.1679785 12.4545,22.0586986 C12.4545,16.9494187 15.0230625,12.4266316 18.9419063,9.69989713 C20.0594062,8.92232297 21.2866875,8.29113876 22.5957187,7.83386842 C24.1624687,7.2865622 25.8456562,6.98790431 27.5978437,6.98790431 C29.3500312,6.98790431 31.0333125,7.2866555 32.5999688,7.83386842 C33.909,8.29113876 35.1361875,8.92232297 36.2537813,9.69989713 C40.172625,12.4266316 42.7411875,16.9494187 42.7411875,22.0586986 C42.7411875,27.1679785 40.172625,31.6907656 36.2537813,34.4175 Z M46.125,33.0404641 C46.125,33.7997512 45.504375,34.4174067 44.7414375,34.4174067 L39.22125,34.4174067 C42.5391562,31.3248373 44.6161875,26.9288469 44.6161875,22.0586053 C44.6161875,17.1883636 42.5391562,12.7923732 39.22125,9.69980383 L39.597,9.69980383 L44.7414375,9.69980383 C45.504375,9.69980383 46.125,10.3174593 46.125,11.0767464 L46.125,33.0404641 Z" id="Shape" fill="#39516B" fill-rule="nonzero"></path>
                <path d="M27.5978438,9.80915311 C20.811,9.80915311 15.2895,15.3042344 15.2895,22.0586986 C15.2895,28.8130694 20.811,34.3081507 27.5978438,34.3081507 C28.5867188,34.3081507 29.571,34.1909641 30.5233125,33.9598565 C31.026375,33.8377249 31.334625,33.3329641 31.212,32.8324019 C31.089375,32.3317464 30.5820938,32.0247847 30.079125,32.1470096 C29.2720313,32.3429426 28.4371875,32.4422153 27.5978438,32.4422153 C21.844875,32.4422153 17.1645,27.7842344 17.1645,22.0587919 C17.1645,16.3333493 21.844875,11.6752751 27.5978438,11.6752751 C33.3508125,11.6752751 38.0311875,16.333256 38.0311875,22.0587919 C38.0311875,24.1455718 37.4120625,26.1576172 36.2404688,27.8774426 C35.9499375,28.3039234 36.061875,28.8841651 36.4904063,29.1733062 C36.9186563,29.4623541 37.501875,29.3511388 37.7925,28.9245646 C39.1753125,26.8946053 39.9061875,24.5204569 39.9061875,22.0588852 C39.9061875,15.3042344 34.3846875,9.80915311 27.5978438,9.80915311 Z" id="Path" fill="#39516B"></path>
                <path d="M6.59109375,12.9247679 C4.66621875,12.9247679 3.1003125,14.4832751 3.1003125,16.3988469 C3.1003125,18.3144187 4.6663125,19.8729258 6.59109375,19.8729258 C8.515875,19.8729258 10.081875,18.3144187 10.081875,16.3988469 C10.081875,14.4832751 8.515875,12.9247679 6.59109375,12.9247679 Z M6.59109375,18.0069904 C5.7001875,18.0069904 4.9753125,17.2855837 4.9753125,16.3989402 C4.9753125,15.5122967 5.7001875,14.79089 6.59109375,14.79089 C7.482,14.79089 8.206875,15.5122967 8.206875,16.3989402 C8.206875,17.2855837 7.48209375,18.0069904 6.59109375,18.0069904 Z" id="Shape" fill="#39516B" fill-rule="nonzero"></path>
                <path d="M35.1647812,31.0572488 C35.1525,30.9984689 35.1346875,30.939689 35.11125,30.8827751 C35.0878125,30.8267943 35.05875,30.7726794 35.025,30.7222967 C34.9913437,30.6709809 34.951875,30.6233971 34.90875,30.5804785 C34.865625,30.5375598 34.8169687,30.4983732 34.76625,30.4638517 C34.7146875,30.4302632 34.6603125,30.4013397 34.6040625,30.3780144 C34.5478125,30.354689 34.4888437,30.3369617 34.4288437,30.3248325 C34.3079062,30.3005742 34.1832187,30.3005742 34.0622812,30.3248325 C34.0021875,30.3369617 33.943125,30.354689 33.8869687,30.3780144 C33.830625,30.4013397 33.7763437,30.4302632 33.7247812,30.4638517 C33.6741562,30.4983732 33.6263437,30.5375598 33.5822812,30.5804785 C33.5391562,30.6233971 33.4997812,30.6709809 33.4660312,30.7222967 C33.4322812,30.7726794 33.4032187,30.8267943 33.3797812,30.8827751 C33.3563437,30.939689 33.3385312,30.9984689 33.3263437,31.0572488 C33.3141562,31.1178947 33.3076875,31.1794737 33.3076875,31.2401196 C33.3076875,31.3007656 33.3141562,31.3623445 33.3263437,31.4220574 C33.3385312,31.4817703 33.3563437,31.5405502 33.3797812,31.5965311 C33.4032187,31.653445 33.4322812,31.7075598 33.4660312,31.7579426 C33.4997812,31.8092584 33.5391562,31.8568421 33.5822812,31.8997608 C33.6263437,31.9426794 33.6740625,31.981866 33.7247812,32.0154545 C33.7764375,32.0490431 33.8307187,32.0779665 33.8869687,32.1012919 C33.9432187,32.1246172 34.0021875,32.1423445 34.0622812,32.1544737 C34.123125,32.1666029 34.1841562,32.173134 34.2450937,32.173134 C34.306875,32.173134 34.3679062,32.1666029 34.4288437,32.1544737 C34.4888437,32.1423445 34.5479062,32.1246172 34.6040625,32.1012919 C34.6604062,32.0779665 34.7147812,32.0490431 34.76625,32.0154545 C34.816875,31.981866 34.865625,31.9426794 34.90875,31.8997608 C35.083125,31.7262201 35.1825937,31.4855024 35.1825937,31.2401196 C35.1825937,31.1794737 35.176875,31.1178947 35.1647812,31.0572488 Z" id="Path" fill="#39516B"></path>
            </g>
        </g>
    </g>
</svg>