<?xml version="1.0" encoding="UTF-8"?>
<svg width="48px" height="53px" viewBox="0 0 48 53" version="1.1" xmlns="http://www.w3.org/2000/svg" xmlns:xlink="http://www.w3.org/1999/xlink">
    <!-- Generator: Sketch 52.4 (67378) - http://www.bohemiancoding.com/sketch -->
    <title>microphone</title>
    <desc>Created with Sketch.</desc>
    <g id="Welcome" stroke="none" stroke-width="1" fill="none" fill-rule="evenodd">
        <g id="Desktop-HD" transform="translate(-610.000000, -548.000000)">
            <g id="microphone" transform="translate(610.000000, 548.000000)">
                <circle id="Oval" fill="#70FFE9" cx="24.5" cy="20.5" r="20.5"></circle>
                <path d="M24,38.7998047 C28.8592529,38.7998047 32.8125,34.8465576 32.8125,29.9873047 L32.8125,13.8125 C32.8125,8.95324709 28.8592529,5 24,5 C19.1407471,5 15.1875,8.95324709 15.1875,13.8125 L15.1875,29.9873047 C15.1875,34.8465576 19.1407471,38.7998047 24,38.7998047 Z M24,6.875 C27.8254395,6.875 30.9375,9.9870605 30.9375,13.8125 L30.9375,21.5604248 L17.0625,21.5604248 L17.0625,13.8125 C17.0625,9.9870605 20.1745605,6.875 24,6.875 Z M17.0625,23.4354248 L30.9375,23.4354248 L30.9375,29.9873047 C30.9375,33.8127442 27.8254395,36.9248047 24,36.9248047 C20.1745605,36.9248047 17.0625,33.8127442 17.0625,29.9873047 L17.0625,23.4354248 Z" id="Shape" fill="#39516B" fill-rule="nonzero"></path>
                <path d="M21.7188721,17.3105469 L26.2811279,17.3105469 C26.7989502,17.3105469 27.2186279,16.8908692 27.2186279,16.3730469 C27.2186279,15.8552246 26.7989502,15.4355469 26.2811279,15.4355469 L21.7188721,15.4355469 C21.2010498,15.4355469 20.7813721,15.8552246 20.7813721,16.3730469 C20.7813721,16.8908692 21.2010498,17.3105469 21.7188721,17.3105469 Z" id="Path" fill="#39516B"></path>
                <path d="M21.7188721,13.8165283 L26.2811279,13.8165283 C26.7989502,13.8165283 27.2186279,13.3968506 27.2186279,12.8790283 C27.2186279,12.361206 26.7989502,11.9415283 26.2811279,11.9415283 L21.7188721,11.9415283 C21.2010498,11.9415283 20.7813721,12.361206 20.7813721,12.8790283 C20.7813721,13.3968506 21.2010498,13.8165283 21.7188721,13.8165283 Z" id="Path" fill="#39516B"></path>
                <path d="M36.0029297,29.0498047 C35.4854737,29.0498047 35.0654297,29.4694824 35.0654297,29.9873047 C35.0654297,36.0887451 30.1014404,41.0527344 24,41.0527344 C17.8985596,41.0527344 12.9345703,36.0887451 12.9345703,29.9873047 C12.9345703,29.4694824 12.5148926,29.0498047 11.9970703,29.0498047 C11.479248,29.0498047 11.0595703,29.4694824 11.0595703,29.9873047 C11.0595703,36.1740723 15.4244385,41.3599854 21.2358398,42.6296386 L21.2358398,47.3691406 L21.1622315,47.3691406 C18.5742188,47.3691406 16.4688721,49.4744873 16.4688721,52.0625 C16.4688721,52.5803223 16.8885498,53 17.4063721,53 L30.5936279,53 C31.1114502,53 31.5311279,52.5803223 31.5311279,52.0625 C31.5311279,49.4748536 29.4257813,47.3691406 26.8377685,47.3691406 L26.7641602,47.3691406 L26.7641602,42.6296386 C32.5759277,41.3599854 36.9404297,36.1740723 36.9404297,29.9873047 C36.9404297,29.4694824 36.520752,29.0498047 36.0029297,29.0498047 Z M29.4960938,51.125 L18.5042724,51.125 C18.8913574,50.0303955 19.9365234,49.2441406 21.1622315,49.2441406 L26.8381348,49.2441406 C28.0634766,49.2441406 29.1086426,50.0303955 29.4960938,51.125 Z M24.8891602,47.3691406 L23.1108398,47.3691406 L23.1108398,42.8966065 C23.4049073,42.916748 23.7011719,42.9277344 24,42.9277344 C24.2988281,42.9277344 24.5950927,42.916748 24.8891602,42.8966065 L24.8891602,47.3691406 Z" id="Shape" fill="#39516B" fill-rule="nonzero"></path>
                <path d="M4.6875,13.7568359 C4.16967769,13.7568359 3.75,14.1765136 3.75,14.6943359 L3.75,23.845581 C3.75,24.3630371 4.16967769,24.783081 4.6875,24.783081 C5.20532231,24.783081 5.625,24.3630371 5.625,23.845581 L5.625,14.6943359 C5.625,14.1765136 5.20532231,13.7568359 4.6875,13.7568359 Z" id="Path" fill="#39516B"></path>
                <path d="M12.1875,22.4400635 C12.7053223,22.4400635 13.125,22.0203857 13.125,21.5025635 L13.125,17.0369873 C13.125,16.5191651 12.7053223,16.0994873 12.1875,16.0994873 C11.6696777,16.0994873 11.25,16.5191651 11.25,17.0369873 L11.25,21.5025635 C11.25,22.0203857 11.6696777,22.4400635 12.1875,22.4400635 Z" id="Path" fill="#39516B"></path>
                <path d="M0.9375,10.0625 C0.419677688,10.0625 0,10.4821777 0,11 L0,26.5936279 C0,27.1114502 0.419677688,27.5311279 0.9375,27.5311279 C1.45532231,27.5311279 1.875,27.1114502 1.875,26.5936279 L1.875,11 C1.875,10.4821777 1.45532231,10.0625 0.9375,10.0625 Z" id="Path" fill="#39516B"></path>
                <path d="M8.4375,12.8109131 C7.91967769,12.8109131 7.5,13.2305908 7.5,13.7484131 L7.5,26.4204102 C7.5,26.9382324 7.91967769,27.3579102 8.4375,27.3579102 C8.95532231,27.3579102 9.375,26.9382324 9.375,26.4204102 L9.375,13.7484131 C9.375,13.2305908 8.95532231,12.8109131 8.4375,12.8109131 Z" id="Path" fill="#39516B"></path>
                <path d="M43.3125,13.7568359 C42.7946777,13.7568359 42.375,14.1765136 42.375,14.6943359 L42.375,23.845581 C42.375,24.3630371 42.7946777,24.783081 43.3125,24.783081 C43.8303223,24.783081 44.25,24.3630371 44.25,23.845581 L44.25,14.6943359 C44.25,14.1765136 43.8303223,13.7568359 43.3125,13.7568359 Z" id="Path" fill="#39516B"></path>
                <path d="M35.8125,22.4400635 C36.3303223,22.4400635 36.75,22.0203857 36.75,21.5025635 L36.75,17.0369873 C36.75,16.5191651 36.3303223,16.0994873 35.8125,16.0994873 C35.2946777,16.0994873 34.875,16.5191651 34.875,17.0369873 L34.875,21.5025635 C34.875,22.0203857 35.2946777,22.4400635 35.8125,22.4400635 Z" id="Path" fill="#39516B"></path>
                <path d="M47.0625,10.0625 C46.5446777,10.0625 46.125,10.4821777 46.125,11 L46.125,26.5936279 C46.125,27.1114502 46.5446777,27.5311279 47.0625,27.5311279 C47.5803223,27.5311279 48,27.1114502 48,26.5936279 L48,11 C48,10.4821777 47.5803223,10.0625 47.0625,10.0625 Z" id="Path" fill="#39516B"></path>
                <path d="M39.5625,25.4832763 C39.3160401,25.4832763 39.0739746,25.5828857 38.8996583,25.7572021 C38.7253417,25.9326172 38.625,26.1735839 38.625,26.4207763 C38.625,26.6676026 38.7253417,26.9093018 38.8996583,27.0836182 C39.0739746,27.2583008 39.3160401,27.3582763 39.5625,27.3582763 C39.8089599,27.3582763 40.0510254,27.2583008 40.2253417,27.0836182 C40.3996583,26.9093018 40.5,26.6676026 40.5,26.4207763 C40.5,26.1735839 40.3996583,25.9326172 40.2253417,25.7572021 C40.0510254,25.5828857 39.8089599,25.4832763 39.5625,25.4832763 Z" id="Path" fill="#39516B"></path>
                <path d="M39.5625,12.8109131 C39.0446777,12.8109131 38.625,13.2305908 38.625,13.7484131 L38.625,22.4400635 C38.625,22.9578857 39.0446777,23.3775635 39.5625,23.3775635 C40.0803223,23.3775635 40.5,22.9578857 40.5,22.4400635 L40.5,13.7484131 C40.5,13.2305908 40.0803223,12.8109131 39.5625,12.8109131 Z" id="Path" fill="#39516B"></path>
                <path d="M24,34.859375 C26.6865234,34.859375 28.8724365,32.6738281 28.8724365,29.9873047 C28.8724365,29.4694824 28.4523926,29.0498047 27.9349365,29.0498047 C27.4171143,29.0498047 26.9974365,29.4694824 26.9974365,29.9873047 C26.9974365,31.6396484 25.6527099,32.984375 24,32.984375 C23.4821777,32.984375 23.0625,33.4040527 23.0625,33.921875 C23.0625,34.4396973 23.4821777,34.859375 24,34.859375 Z" id="Path" fill="#39516B"></path>
                <path d="M27.9345703,27.6875 C28.1813964,27.6875 28.4230958,27.5871583 28.5974121,27.4128417 C28.7717286,27.2385254 28.8720703,26.9964599 28.8720703,26.75 C28.8720703,26.5035401 28.7720948,26.2614746 28.5974121,26.0871583 C28.4230958,25.9128417 28.1813964,25.8125 27.9345703,25.8125 C27.6881104,25.8125 27.4464112,25.9128417 27.2720948,26.0871583 C27.0977783,26.2614746 26.9970703,26.5035401 26.9970703,26.75 C26.9970703,26.9964599 27.0974121,27.2385254 27.2720948,27.4128417 C27.4464112,27.5871583 27.6881104,27.6875 27.9345703,27.6875 Z" id="Path" fill="#39516B"></path>
            </g>
        </g>
    </g>
</svg>