<?xml version="1.0" encoding="UTF-8"?>
<svg width="42px" height="48px" viewBox="0 0 42 48" version="1.1" xmlns="http://www.w3.org/2000/svg" xmlns:xlink="http://www.w3.org/1999/xlink">
    <!-- Generator: Sketch 52.4 (67378) - http://www.bohemiancoding.com/sketch -->
    <title>sketch</title>
    <desc>Created with Sketch.</desc>
    <g id="Welcome" stroke="none" stroke-width="1" fill="none" fill-rule="evenodd">
        <g id="Desktop-HD" transform="translate(-610.000000, -745.000000)">
            <g id="sketch" transform="translate(610.000000, 745.000000)">
                <rect id="Rectangle" fill="#70FFE9" x="5" y="14" width="30" height="30"></rect>
                <path d="M32.0342812,10.8109687 L21.4292812,0.20596875 C21.30075,0.0774375 21.1175625,0 20.9320312,0 L2.133,0 C1.00153125,0 0.081,0.92053125 0.081,2.05190625 L0.081,45.8837812 C0.081,47.0506875 1.0303125,48 2.19721875,48 L30.161625,48 C31.3079062,48 32.24025,47.0674688 32.24025,45.921375 L32.24025,11.308125 C32.24025,11.1285938 32.1700313,10.946625 32.0342812,10.8109687 Z M21.6351562,2.40075 C21.9954375,2.76103125 29.4793125,10.2449063 29.8394062,10.6049063 L22.2807187,10.6049063 C21.92475,10.6049063 21.6351562,10.3153125 21.6351562,9.95934375 L21.6351562,2.40075 Z M30.8338125,45.921375 C30.8339063,46.2919687 30.5323125,46.5936562 30.1615313,46.5936562 L2.19721875,46.5936562 C1.80590625,46.5936562 1.4874375,46.2752812 1.4874375,45.883875 L1.4874375,2.05190625 C1.4874375,1.6959375 1.77703125,1.40634375 2.133,1.40634375 L20.2289063,1.40634375 L20.2289063,9.9594375 C20.2289063,11.0909063 21.1494375,12.0113438 22.2808125,12.0113438 L30.8339063,12.0113438 L30.8339063,45.921375 L30.8338125,45.921375 Z" id="Shape" fill="#39516B" fill-rule="nonzero"></path>
                <path d="M41.2157812,24.5267813 C41.6040938,24.5267813 41.9189062,24.2119688 41.9189062,23.8236563 C41.919,22.9696875 41.9189062,7.57959375 41.9189062,6.912 C41.9189062,5.48878125 40.7610938,4.33096875 39.337875,4.33096875 L37.5680625,4.33096875 C36.1449375,4.33096875 34.9870313,5.48878125 34.9870313,6.912 C34.9870313,7.341 34.9870313,40.389 34.9870313,41.1659062 C34.9870313,41.1668437 34.987125,41.1676875 34.987125,41.168625 C34.9874062,41.246625 35.0034375,41.3405625 35.0353125,41.4220312 C35.2486875,41.9675625 37.057125,46.5909375 37.26525,47.12325 C37.7175,48.279375 39.1890937,48.2774063 39.6405,47.12325 C39.8484375,46.5915938 41.6596875,41.961 41.8704375,41.4220312 C41.89875,41.3496562 41.91825,41.2547813 41.918625,41.168625 C41.918625,41.1676875 41.9187187,41.1668437 41.9187187,41.1659062 L41.9187187,27.105 C41.9187187,26.7166875 41.6039063,26.401875 41.2155937,26.401875 C40.8272812,26.401875 40.5124687,26.7166875 40.5124687,27.105 L40.5124687,40.4626875 L39.156,40.4626875 L39.156,13.0494375 L40.5124687,13.0494375 L40.5124687,23.8235625 C40.5125625,24.2119688 40.8274688,24.5267813 41.2157812,24.5267813 Z M36.3934688,6.91190625 C36.3934688,6.26428125 36.9204375,5.73721875 37.5681563,5.73721875 L39.3379688,5.73721875 C39.9855937,5.73721875 40.5126562,6.2641875 40.5126562,6.91190625 L40.5126562,8.25928125 L36.3934687,8.25928125 L36.3934687,6.91190625 Z M38.4530625,46.2988125 L37.7335312,44.4591563 L39.1726875,44.4591563 L38.4530625,46.2988125 Z M40.18575,41.8690313 L39.7227187,43.0528125 L37.1833125,43.0528125 L36.7202812,41.8690313 C37.974375,41.8690313 38.93175,41.8690313 40.18575,41.8690313 Z M36.3934688,40.4626875 L36.3934688,13.0494375 L37.7499375,13.0494375 L37.7499375,40.4626875 L36.3934688,40.4626875 Z M36.3934688,11.6431875 L36.3934688,9.665625 L40.51275,9.665625 L40.51275,11.6430938 C39.8061563,11.6431875 37.3805625,11.6431875 36.3934688,11.6431875 Z" id="Shape" fill="#39516B" fill-rule="nonzero"></path>
                <path d="M25.38225,22.4416875 L20.5745625,22.4416875 C20.2179375,18.49725 16.8945938,15.3958125 12.8588438,15.3958125 C8.586,15.3958125 5.10984375,18.8720625 5.10984375,23.1449062 C5.10984375,27.1806562 8.211375,30.5039062 12.1557188,30.8605312 L12.1557188,35.6682187 C12.1557188,36.3015 12.670875,36.81675 13.30425,36.81675 L17.4410625,36.81675 C17.829375,36.81675 18.1441875,36.5019375 18.1441875,36.113625 C18.1441875,35.7253125 17.829375,35.4105 17.4410625,35.4105 L13.5620625,35.4105 L13.5620625,30.860625 C17.2746562,30.5249062 20.2388438,27.5607187 20.5745625,23.8480312 L25.1244375,23.8480312 L25.1244375,35.4104062 L20.7224062,35.4104062 C20.3340938,35.4104062 20.0192812,35.7252187 20.0192812,36.1135312 C20.0192812,36.5018437 20.3340938,36.8166562 20.7224062,36.8166562 L25.38225,36.8166562 C26.0155312,36.8166562 26.5307812,36.3015 26.5307812,35.668125 L26.5307812,23.590125 C26.5306875,22.9568437 26.0155312,22.4416875 25.38225,22.4416875 Z M13.5619688,29.4477187 L13.5619688,23.8480312 L19.1616563,23.8480312 C18.8361563,26.7845625 16.4985938,29.1222188 13.5619688,29.4477187 Z M13.3041563,22.4416875 C12.670875,22.4416875 12.155625,22.9568438 12.155625,23.5902187 L12.155625,29.4477187 C8.98809375,29.0967187 6.51609375,26.4045938 6.51609375,23.145 C6.51609375,19.6476563 9.36140625,16.80225 12.85875,16.80225 C16.1183438,16.80225 18.8104687,19.27425 19.1615625,22.4417813 L13.3041563,22.4417813 L13.3041563,22.4416875 Z" id="Shape" fill="#39516B" fill-rule="nonzero"></path>
            </g>
        </g>
    </g>
</svg>