<?xml version="1.0" encoding="UTF-8"?>
<svg width="49px" height="56px" viewBox="0 0 49 56" version="1.1" xmlns="http://www.w3.org/2000/svg" xmlns:xlink="http://www.w3.org/1999/xlink">
    <!-- Generator: Sketch 52.4 (67378) - http://www.bohemiancoding.com/sketch -->
    <title>034-promotion</title>
    <desc>Created with Sketch.</desc>
    <g id="Welcome" stroke="none" stroke-width="1" fill="none" fill-rule="evenodd">
        <g id="Desktop-HD" transform="translate(-994.000000, -449.000000)">
            <g id="034-promotion" transform="translate(994.000000, 443.000000)">
                <path d="M29.6053125,52.9686875 C30.123,52.9686875 30.5428125,52.5489687 30.5428125,52.0311875 L30.5428125,39.243875 C30.5429006,38.9518031 30.4068059,38.6763899 30.17475,38.4990312 C29.9427272,38.3216875 29.6413293,38.2625586 29.3595,38.3390937 L10.8463125,43.3719687 L6.242625,43.3719687 C4.77309375,43.3719687 3.560625,44.4930312 3.4153125,45.9247812 C1.465125,46.3490937 0,48.087875 0,50.1632187 C0,52.2395 1.4664375,53.9788437 3.41784375,54.402125 C3.549,55.60625 4.4353125,56.5862188 5.592,56.8582812 L7.554,61.4320625 C7.70179107,61.7766176 8.04064858,61.9999907 8.4155625,62 L13.1444062,62 C13.4596289,62.0000373 13.7537687,61.8416559 13.927257,61.5784695 C14.1007452,61.315283 14.1303548,60.9825276 14.0060625,60.6928437 L12.5980313,57.4104687 L29.3594062,61.9670937 C29.6412391,62.0437404 29.9426934,61.9846438 30.1747265,61.8072597 C30.4067596,61.6298756 30.5428547,61.3544756 30.5428125,61.0624062 L30.5428125,59.2811562 C30.5428125,58.763375 30.123,58.3436562 29.6053125,58.3436562 C29.087625,58.3436562 28.6678125,58.763375 28.6678125,59.2811562 L28.6678125,59.8359687 L11.908875,55.28 L11.908875,45.0261875 L28.6678125,40.4702188 L28.6678125,52.0311875 C28.6678125,52.5489688 29.087625,52.9686875 29.6053125,52.9686875 Z M3.40059375,52.4405938 C2.50621875,52.0709375 1.875,51.1895938 1.875,50.1632188 C1.875,49.1368438 2.50621875,48.2555 3.40059375,47.8859375 L3.40059375,52.4405938 Z M6.242625,55.0594063 C5.709375,55.0594063 5.2756875,54.625625 5.2756875,54.0924688 L5.2756875,46.214 L5.27559375,46.214 C5.27559375,45.6808438 5.709375,45.2470625 6.24253125,45.2470625 L10.033875,45.2470625 L10.033875,55.0594063 L6.242625,55.0594063 Z M9.0335625,60.125 L7.6648125,56.9343125 L10.3534688,56.9343125 L11.7222187,60.125 L9.0335625,60.125 Z" id="Shape" fill="#39516B" fill-rule="nonzero"></path>
                <polygon id="Rectangle" fill="#70FFE9" transform="translate(25.627417, 23.000000) rotate(-225.000000) translate(-25.627417, -23.000000) " points="9.627417 7 41.627417 16.1211523 18.7485693 39"></polygon>
                <path d="M30.2680313,55.334375 C30.0922157,55.1586663 29.8538776,55.0598785 29.6053125,55.0596875 C29.35875,55.0596875 29.116875,55.1590625 28.9425,55.334375 C28.768125,55.50875 28.6678125,55.750625 28.6678125,55.9971875 C28.6678125,56.24375 28.7680313,56.485625 28.9425,56.66 C29.116875,56.834375 29.35875,56.9346875 29.6053125,56.9346875 C29.8528125,56.9346875 30.09375,56.834375 30.2680313,56.66 C30.4424063,56.485625 30.5428125,56.24375 30.5428125,55.9971875 C30.5428125,55.750625 30.4425,55.50875 30.2680313,55.334375 Z" id="Path" fill="#39516B"></path>
                <path d="M39.0552188,41.832125 C38.689125,41.4659375 38.0956875,41.4660312 37.7294063,41.832125 C37.3633125,42.1982187 37.3633125,42.7918437 37.7294063,43.1579375 C39.5980313,45.0264687 40.6270313,47.51075 40.6270313,50.1531875 C40.6270313,52.7957187 39.5979375,55.28 37.7294063,57.1484375 C37.3633125,57.5145312 37.3633125,58.1081562 37.7294063,58.47425 C37.9125,58.6573437 38.1524063,58.7488437 38.3923125,58.7488437 C38.6322188,58.7488437 38.872125,58.65725 39.0552188,58.47425 C41.2778438,56.251625 42.5020313,53.2965312 42.5020313,50.1531875 C42.5020313,47.0099375 41.2778438,44.05475 39.0552188,41.832125 Z" id="Path" fill="#39516B"></path>
                <path d="M36.3636563,44.5237813 C35.9975625,44.1576875 35.404125,44.1576875 35.03775,44.5237813 C34.6716563,44.889875 34.6716563,45.4835 35.03775,45.8495938 C37.41075,48.2225938 37.41075,52.0837813 35.03775,54.4567813 C34.6716563,54.822875 34.6716563,55.4165 35.03775,55.7825938 C35.2208438,55.9656875 35.46075,56.0571875 35.7006563,56.0571875 C35.9405625,56.0571875 36.1804688,55.9655938 36.3635625,55.7825938 C39.4675313,52.6785313 39.4675313,47.6278438 36.3636563,44.5237813 Z" id="Path" fill="#39516B"></path>
                <path d="M33.5256562,47.3617812 C33.1595625,46.9956875 32.566125,46.9955937 32.1998437,47.3616875 C31.83375,47.7277812 31.83375,48.3214062 32.1998437,48.6875 C33.0079687,49.4957187 33.0079687,50.8106562 32.1998437,51.618875 C31.83375,51.9849687 31.83375,52.5785937 32.1998437,52.9446875 C32.3829375,53.1277812 32.6228437,53.2192812 32.86275,53.2192812 C33.1026562,53.2192812 33.3425625,53.1276875 33.5256562,52.9446875 C35.0648437,51.4055 35.0648437,48.9009687 33.5256562,47.3617812 Z" id="Path" fill="#39516B"></path>
                <path d="M44.9488125,26.8566875 L41.3398125,25.6607188 C42.295125,24.5688125 42.876,23.1414688 42.876,21.5800625 L42.876,20.2056875 C42.8760938,16.7839063 40.0921875,14 36.6703125,14 C33.2484375,14 30.4645313,16.7839063 30.4645313,20.2057813 L30.4645313,21.5801563 C30.4645313,23.1415625 31.0454063,24.5689062 32.0008125,25.6608125 L28.3918125,26.8567812 C26.5689697,27.4585297 25.3384586,29.1625906 25.340625,31.0821875 L25.340625,35.0020625 C25.340625,35.5198437 25.7604375,35.9395625 26.278125,35.9395625 L47.0625,35.9395625 C47.5801875,35.9395625 48,35.5198437 48,35.0020625 L48,31.0821875 C48.0021775,29.1625656 46.7716699,27.4584716 44.9488125,26.8566875 Z M32.3394375,20.2057813 L32.3395313,20.2057813 C32.3395313,17.8177812 34.2824063,15.875 36.6703125,15.875 C39.0582188,15.875 41.001,17.8177812 41.001,20.2057812 L41.001,21.5801562 C41.001,23.0829687 40.2312188,24.4089687 39.065625,25.185875 C39.0016771,25.2167792 38.9414208,25.254801 38.886,25.2992187 C38.2165216,25.7002319 37.4506112,25.9116796 36.6702188,25.9109375 C35.8897456,25.9117465 35.1237492,25.7002606 34.45425,25.299125 C34.3989156,25.2547067 34.3387177,25.2167135 34.2748125,25.185875 C33.1092188,24.4089687 32.3394375,23.0829687 32.3394375,21.5801562 L32.3394375,20.2057812 Z M46.1250016,34.0644688 L43.7953125,34.0644688 L43.7953125,31.7795938 C43.7953125,31.2618125 43.3755,30.8420938 42.8578125,30.8420938 C42.340125,30.8420938 41.9203125,31.2618125 41.9203125,31.7795938 L41.9203125,34.0644688 L31.4203125,34.0644688 L31.4203125,31.7795938 C31.4203125,31.2618125 31.0005,30.8420938 30.4828125,30.8420938 C29.965125,30.8420938 29.5453125,31.2618125 29.5453125,31.7795938 L29.5453125,34.0644688 L27.2156234,34.0644688 L27.215625,31.0820938 C27.2143909,29.9710578 27.9265737,28.9847695 28.9815938,28.6364375 L33.7529063,27.0553437 C34.6502189,27.5358814 35.6525234,27.786844 36.6704062,27.7858437 C37.6882583,27.7868363 38.6905306,27.5358737 39.5878125,27.0553437 L44.359125,28.6364375 C45.414108,28.9848021 46.1262474,29.9710827 46.125,31.0820937 L46.1250016,34.0644688 Z" id="Shape" fill="#39516B" fill-rule="nonzero"></path>
                <path d="M16.96875,23.5625 L4.96875,23.5625 C2.22890625,23.5625 0,25.7915 0,28.53125 C0,31.271 2.22890625,33.5 4.96875,33.5 L13.1953125,33.5 C14.190375,33.5 15,34.309625 15,35.3046875 L15,38.9105 C15,39.4282812 15.4198125,39.848 15.9375,39.848 C16.4551875,39.848 16.875,39.4282812 16.875,38.9105 L16.875,35.3046875 C16.875,33.2756562 15.2243438,31.625 13.1953125,31.625 L4.96875,31.625 C3.262875,31.625 1.875,30.237125 1.875,28.53125 C1.875,26.825375 3.262875,25.4375 4.96875,25.4375 L16.96875,25.4375 C17.4864375,25.4375 17.90625,25.0177812 17.90625,24.5 C17.90625,23.9822188 17.4864375,23.5625 16.96875,23.5625 Z" id="Path" fill="#39516B"></path>
                <path d="M21.2877187,23.8371875 C21.1134375,23.6628125 20.8715625,23.5625 20.625,23.5625 C20.3784375,23.5625 20.1365625,23.6628125 19.9621875,23.8371875 C19.7878125,24.0115625 19.6875,24.2534375 19.6875,24.5 C19.6875,24.7465625 19.7877187,24.9884375 19.9621875,25.1628125 C20.1366563,25.3371875 20.3784375,25.4375 20.625,25.4375 C20.8715625,25.4375 21.1134375,25.3371875 21.2877187,25.1628125 C21.4620938,24.9884375 21.5625,24.7465625 21.5625,24.5 C21.5625,24.2534375 21.4621875,24.0115625 21.2877187,23.8371875 Z" id="Path" fill="#39516B"></path>
                <path d="M25.1874375,23.837 L23.7330938,22.3826563 C23.3669063,22.0165625 22.7734688,22.0165625 22.4071875,22.3826563 C22.0410938,22.74875 22.0410938,23.342375 22.4071875,23.7085625 L23.1985313,24.4999063 L22.4071875,25.29125 C22.0410938,25.6575313 22.0410938,26.2511563 22.4072813,26.61725 C22.5829065,26.7933465 22.8214826,26.8921712 23.0701875,26.8918438 C23.3188924,26.8921712 23.5574685,26.7933465 23.7330938,26.61725 L25.1874375,25.1629063 C25.5535313,24.7968125 25.5535313,24.2031875 25.1874375,23.837 Z" id="Path" fill="#39516B"></path>
            </g>
        </g>
    </g>
</svg>