<?xml version="1.0" encoding="UTF-8"?>
<svg width="49px" height="47px" viewBox="0 0 49 47" version="1.1" xmlns="http://www.w3.org/2000/svg" xmlns:xlink="http://www.w3.org/1999/xlink">
    <!-- Generator: Sketch 52.4 (67378) - http://www.bohemiancoding.com/sketch -->
    <title>041-video-player</title>
    <desc>Created with Sketch.</desc>
    <g id="Welcome" stroke="none" stroke-width="1" fill="none" fill-rule="evenodd">
        <g id="Desktop-HD" transform="translate(-794.000000, -650.000000)">
            <g id="041-video-player" transform="translate(783.000000, 642.000000)">
                <polygon id="Rectangle" fill="#70FFE9" transform="translate(30.000000, 30.000000) rotate(-225.000000) translate(-30.000000, -30.000000) " points="9 9 51 20.9715123 20.9715123 51"></polygon>
                <path d="M39.4764688,28.785679 L34.5839375,25.6452707 C33.9597921,25.2444484 33.1669451,25.2167971 32.5164688,25.5731659 C31.8658829,25.9292757 31.4612844,26.612629 31.4614063,27.355131 L31.4614063,33.6360415 C31.4612437,34.3785546 31.8658536,35.0619272 32.5164688,35.4180066 C33.1669062,35.7745398 33.9598424,35.7468855 34.5839375,35.3459017 L39.4764688,32.2054934 C40.0610938,31.8302293 40.410125,31.1909563 40.410125,30.4955393 C40.410125,29.8001223 40.0610938,29.1609432 39.4764688,28.785679 Z M38.464625,30.6247271 L33.5720938,33.7651354 C33.5531563,33.7772467 33.4957813,33.8140502 33.4160938,33.7705808 C33.3364063,33.7269236 33.3364063,33.6585742 33.3364063,33.6360415 L33.3364063,27.355131 C33.3364063,27.3326921 33.3364063,27.2642489 33.4160938,27.2205917 C33.444125,27.2052882 33.4693438,27.1999367 33.4911875,27.1999367 C33.5314063,27.1999367 33.5598125,27.2181507 33.5720938,27.2260371 L38.464625,30.3664454 C38.5114063,30.3964891 38.535125,30.4398646 38.535125,30.4955393 C38.535125,30.551214 38.5114063,30.5946834 38.464625,30.6247271 Z" id="Shape" fill="#39516B" fill-rule="nonzero"></path>
                <path d="M35.6627188,12.2750873 C35.4884375,12.1004585 35.2465625,12 35,12 C34.7534375,12 34.5115625,12.1004585 34.3371875,12.2750873 C34.1628125,12.4497162 34.0625,12.6919432 34.0625,12.9388646 C34.0625,13.185786 34.1627187,13.4280131 34.3371875,13.6026419 C34.5116563,13.7772707 34.7534375,13.8777293 35,13.8777293 C35.2465625,13.8777293 35.4884375,13.7772707 35.6627188,13.6026419 C35.8371875,13.4280131 35.9375,13.185786 35.9375,12.9388646 C35.9375,12.6919432 35.8371875,12.4497162 35.6627188,12.2750873 Z" id="Path" fill="#39516B"></path>
                <path d="M58.0625,12 L39.472625,12 C38.9549375,12 38.535125,12.4203297 38.535125,12.9388646 C38.535125,13.4573996 38.9549375,13.8777293 39.472625,13.8777293 L57.125,13.8777293 L57.125,53.1222707 L12.875,53.1222707 L12.875,13.8777293 L30.8751875,13.8777293 C31.392875,13.8777293 31.8126875,13.4573996 31.8126875,12.9388646 C31.8126875,12.4203297 31.392875,12 30.8751875,12 L11.9375,12 C11.4198125,12 11,12.4203297 11,12.9388646 L11,54.0611354 C11,54.5796703 11.4198125,55 11.9375,55 L58.0625,55 C58.5801875,55 59,54.5796703 59,54.0611354 L59,12.9388646 C59,12.4203297 58.5801875,12 58.0625,12 Z" id="Path" fill="#39516B"></path>
                <path d="M53.5390625,32.0425066 C53.021375,32.0425066 52.6015625,32.4628362 52.6015625,32.9813712 L52.6015625,41.5205328 C52.6015625,42.0390677 53.021375,42.4593974 53.5390625,42.4593974 C54.05675,42.4593974 54.4765625,42.0390677 54.4765625,41.5205328 L54.4765625,32.9813712 C54.4765625,32.4628362 54.05675,32.0425066 53.5390625,32.0425066 Z" id="Path" fill="#39516B"></path>
                <path d="M54.2017813,28.6573362 C54.0275,28.4827074 53.785625,28.3822489 53.5390625,28.3822489 C53.2925,28.3822489 53.050625,28.4827074 52.87625,28.6573362 C52.701875,28.8319651 52.6015625,29.0741921 52.6015625,29.3211135 C52.6015625,29.5680349 52.7017813,29.810262 52.87625,29.9848908 C53.050625,30.1595197 53.2925,30.2599782 53.5390625,30.2599782 C53.785625,30.2599782 54.0275,30.1595197 54.2017813,29.9848908 C54.3761563,29.810262 54.4765625,29.5680349 54.4765625,29.3211135 C54.4765625,29.0741921 54.37625,28.8319651 54.2017813,28.6573362 Z" id="Path" fill="#39516B"></path>
                <path d="M35,20.1681223 C29.3136875,20.1681223 24.6875,24.8010437 24.6875,30.4956332 C24.6875,36.1902227 29.3136875,40.8231441 35,40.8231441 C40.6863125,40.8231441 45.3125,36.1902227 45.3125,30.4956332 C45.3125,24.8010437 40.6863125,20.1681223 35,20.1681223 Z M35,38.9454148 C30.3475625,38.9454148 26.5625,35.1548428 26.5625,30.4956332 C26.5625,25.8364236 30.3475625,22.0458515 35,22.0458515 C39.6524375,22.0458515 43.4375,25.8364236 43.4375,30.4956332 C43.4375,35.1548428 39.6524375,38.9454148 35,38.9454148 Z" id="Shape" fill="#39516B" fill-rule="nonzero"></path>
                <path d="M54.3437187,47.1135371 L30.9176562,47.1135371 C30.495875,45.39119 28.941875,44.1091703 27.0937812,44.1091703 L24.8437812,44.1091703 C22.9956875,44.1091703 21.4416875,45.39119 21.0199063,47.1135371 L15.03125,47.1135371 C14.5135625,47.1135371 14.09375,47.5338668 14.09375,48.0524017 C14.09375,48.5709367 14.5135625,48.9912664 15.03125,48.9912664 L21.0199062,48.9912664 C21.4416875,50.7136135 22.9956875,51.9956332 24.8437812,51.9956332 L27.0937812,51.9956332 C28.941875,51.9956332 30.495875,50.7136135 30.9176562,48.9912664 L54.3437187,48.9912664 C54.8614062,48.9912664 55.2812187,48.5709367 55.2812187,48.0524017 C55.2812187,47.5338668 54.8614062,47.1135371 54.3437187,47.1135371 Z M27.0937813,50.1179039 L24.8437813,50.1179039 C23.7065,50.1179039 22.7812813,49.1913384 22.7812813,48.0524017 C22.7812813,46.9134651 23.7065,45.9868996 24.8437813,45.9868996 L27.0937813,45.9868996 C28.2310625,45.9868996 29.1562813,46.9134651 29.1562813,48.0524017 C29.1562813,49.1913384 28.2310625,50.1179039 27.0937813,50.1179039 Z" id="Shape" fill="#39516B" fill-rule="nonzero"></path>
            </g>
        </g>
    </g>
</svg>